<svg width="100" height="100" viewBox="0 0 100 100" fill="none" xmlns="http://www.w3.org/2000/svg">
<g clip-path="url(#clip0_2_148)">
<path d="M49.6711 2.64664C48.8336 2.69011 48.0131 2.9041 47.2576 3.27603L14.3249 19.4927C13.4725 19.9122 12.7235 20.5226 12.1336 21.2786C11.5437 22.0345 11.128 22.9166 10.9174 23.8594L2.7927 60.286C2.60508 61.1253 2.58409 61.9945 2.73095 62.8422C2.87781 63.69 3.18955 64.499 3.64771 65.2213C3.75881 65.3979 3.87828 65.5689 4.00572 65.7335L26.8005 94.9417C27.3905 95.6975 28.1395 96.3077 28.9919 96.727C29.8443 97.1463 30.7782 97.364 31.7242 97.3638L68.2792 97.3551C69.2248 97.3558 70.1585 97.1388 71.0109 96.7203C71.8632 96.3017 72.6124 95.6924 73.2029 94.9374L95.9892 65.7249C96.5796 64.9687 96.9956 64.0863 97.2063 63.1432C97.417 62.2001 97.4171 61.2205 97.2065 60.2774L89.0691 23.8507C88.8585 22.908 88.4428 22.0259 87.8529 21.2699C87.263 20.5139 86.5141 19.9035 85.6617 19.484L52.7247 3.27603C51.7744 2.80817 50.7244 2.59175 49.6711 2.64664Z" fill="#326CE5"/>
<path d="M49.6534 0.00897171C48.7703 0.0566405 47.9055 0.283895 47.1094 0.677431L12.3402 17.7926C11.4404 18.2355 10.6498 18.8799 10.0271 19.6779C9.4044 20.476 8.96558 21.4072 8.74327 22.4023L0.167864 60.8561C-0.0307917 61.7425 -0.0533772 62.6606 0.101447 63.5561C0.256272 64.4515 0.585354 65.3061 1.0692 66.0692C1.18691 66.2548 1.31341 66.4344 1.44825 66.6074L25.5108 97.4434C26.1337 98.2411 26.9243 98.8852 27.8241 99.3278C28.7239 99.7704 29.7097 100 30.7083 100L69.2976 99.9913C70.2958 99.992 71.2814 99.7629 72.1812 99.3211C73.0809 98.8792 73.8718 98.236 74.4951 97.439L98.5492 66.5987C99.1718 65.8009 99.6106 64.8699 99.833 63.875C100.055 62.8801 100.056 61.8468 99.8339 60.8517L91.2458 22.3937C91.0229 21.3993 90.5839 20.4689 89.9612 19.6717C89.3385 18.8744 88.5482 18.2307 87.6489 17.7882L52.8797 0.673091C51.8757 0.178835 50.7663 -0.0495361 49.6534 0.00897171ZM49.6702 2.64808C50.7236 2.59319 51.7736 2.80961 52.7238 3.27748L85.6608 19.4854C86.5132 19.9049 87.2622 20.5154 87.8521 21.2713C88.442 22.0273 88.8577 22.9094 89.0683 23.8521L97.2057 60.2788C97.4163 61.2219 97.4162 62.2015 97.2055 63.1446C96.9948 64.0877 96.5788 64.9701 95.9884 65.7263L73.2021 94.9388C72.6116 95.6938 71.8624 96.3032 71.01 96.7218C70.1577 97.1403 69.224 97.3573 68.2784 97.3566L31.7234 97.3653C30.7774 97.3655 29.8435 97.1478 28.9911 96.7285C28.1387 96.3092 27.3897 95.699 26.7997 94.9432L4.00489 65.735C3.87746 65.5704 3.75798 65.3994 3.64689 65.2228C3.18873 64.5004 2.87699 63.6914 2.73013 62.8437C2.58327 61.996 2.60426 61.1268 2.79188 60.2875L10.9166 23.8608C11.1272 22.9181 11.5429 22.036 12.1328 21.2801C12.7227 20.5241 13.4717 19.9137 14.324 19.4942L47.2568 3.27752C48.0123 2.90558 48.8328 2.6916 49.6702 2.64812L49.6702 2.64808Z" fill="white"/>
<path d="M29.5227 90.1818C28.7955 90.1818 28.1534 89.9981 27.5966 89.6307C27.0398 89.2595 26.6042 88.7367 26.2898 88.0625C25.9754 87.3845 25.8182 86.5833 25.8182 85.6591C25.8182 84.7424 25.9754 83.947 26.2898 83.2727C26.6042 82.5985 27.0417 82.0777 27.6023 81.7102C28.1629 81.3428 28.8106 81.1591 29.5455 81.1591C30.1136 81.1591 30.5625 81.2538 30.892 81.4432C31.2254 81.6288 31.4792 81.8409 31.6534 82.0795C31.8314 82.3144 31.9697 82.5076 32.0682 82.6591H32.1818V78.3636H33.5227V90H32.2273V88.6591H32.0682C31.9697 88.8182 31.8295 89.0189 31.6477 89.2614C31.4659 89.5 31.2064 89.714 30.8693 89.9034C30.5322 90.089 30.0833 90.1818 29.5227 90.1818ZM29.7045 88.9773C30.2424 88.9773 30.697 88.8371 31.0682 88.5568C31.4394 88.2727 31.7216 87.8807 31.9148 87.3807C32.108 86.8769 32.2045 86.2955 32.2045 85.6364C32.2045 84.9848 32.1098 84.4148 31.9205 83.9261C31.7311 83.4337 31.4508 83.0511 31.0795 82.7784C30.7083 82.5019 30.25 82.3636 29.7045 82.3636C29.1364 82.3636 28.6629 82.5095 28.2841 82.8011C27.9091 83.089 27.6269 83.4811 27.4375 83.9773C27.2519 84.4697 27.1591 85.0227 27.1591 85.6364C27.1591 86.2576 27.2538 86.822 27.4432 87.3295C27.6364 87.8333 27.9205 88.2348 28.2955 88.5341C28.6742 88.8295 29.1439 88.9773 29.7045 88.9773ZM39.8239 90.1818C38.983 90.1818 38.2576 89.9962 37.6477 89.625C37.0417 89.25 36.5739 88.7273 36.2443 88.0568C35.9186 87.3826 35.7557 86.5985 35.7557 85.7045C35.7557 84.8106 35.9186 84.0227 36.2443 83.3409C36.5739 82.6553 37.0322 82.1212 37.6193 81.7386C38.2102 81.3523 38.8996 81.1591 39.6875 81.1591C40.142 81.1591 40.5909 81.2348 41.0341 81.3864C41.4773 81.5379 41.8807 81.7841 42.2443 82.125C42.608 82.4621 42.8977 82.9091 43.1136 83.4659C43.3295 84.0227 43.4375 84.7083 43.4375 85.5227V86.0909H36.7102V84.9318H42.0739C42.0739 84.4394 41.9754 84 41.7784 83.6136C41.5852 83.2273 41.3087 82.9223 40.9489 82.6989C40.5928 82.4754 40.1723 82.3636 39.6875 82.3636C39.1534 82.3636 38.6913 82.4962 38.3011 82.7614C37.9148 83.0227 37.6174 83.3636 37.4091 83.7841C37.2008 84.2045 37.0966 84.6553 37.0966 85.1364V85.9091C37.0966 86.5682 37.2102 87.1269 37.4375 87.5852C37.6686 88.0398 37.9886 88.3864 38.3977 88.625C38.8068 88.8598 39.2822 88.9773 39.8239 88.9773C40.1761 88.9773 40.4943 88.928 40.7784 88.8295C41.0663 88.7273 41.3144 88.5758 41.5227 88.375C41.7311 88.1705 41.892 87.9167 42.0057 87.6136L43.3011 87.9773C43.1648 88.4167 42.9356 88.803 42.6136 89.1364C42.2917 89.4659 41.8939 89.7235 41.4205 89.9091C40.947 90.0909 40.4148 90.1818 39.8239 90.1818ZM45.4773 93.2727V81.2727H46.7727V82.6591H46.9318C47.0303 82.5076 47.1667 82.3144 47.3409 82.0795C47.5189 81.8409 47.7727 81.6288 48.1023 81.4432C48.4356 81.2538 48.8864 81.1591 49.4545 81.1591C50.1894 81.1591 50.8371 81.3428 51.3977 81.7102C51.9583 82.0777 52.3958 82.5985 52.7102 83.2727C53.0246 83.947 53.1818 84.7424 53.1818 85.6591C53.1818 86.5833 53.0246 87.3845 52.7102 88.0625C52.3958 88.7367 51.9602 89.2595 51.4034 89.6307C50.8466 89.9981 50.2045 90.1818 49.4773 90.1818C48.9167 90.1818 48.4678 90.089 48.1307 89.9034C47.7936 89.714 47.5341 89.5 47.3523 89.2614C47.1705 89.0189 47.0303 88.8182 46.9318 88.6591H46.8182V93.2727H45.4773ZM46.7955 85.6364C46.7955 86.2955 46.892 86.8769 47.0852 87.3807C47.2784 87.8807 47.5606 88.2727 47.9318 88.5568C48.303 88.8371 48.7576 88.9773 49.2955 88.9773C49.8561 88.9773 50.3239 88.8295 50.6989 88.5341C51.0777 88.2348 51.3617 87.8333 51.5511 87.3295C51.7443 86.822 51.8409 86.2576 51.8409 85.6364C51.8409 85.0227 51.7462 84.4697 51.5568 83.9773C51.3712 83.4811 51.089 83.089 50.7102 82.8011C50.3352 82.5095 49.8636 82.3636 49.2955 82.3636C48.75 82.3636 48.2917 82.5019 47.9205 82.7784C47.5492 83.0511 47.2689 83.4337 47.0795 83.9261C46.8902 84.4148 46.7955 84.9848 46.7955 85.6364ZM56.5682 78.3636V90H55.2273V78.3636H56.5682ZM62.5696 90.1818C61.7817 90.1818 61.0904 89.9943 60.4957 89.6193C59.9048 89.2443 59.4427 88.7197 59.1094 88.0455C58.7798 87.3712 58.6151 86.5833 58.6151 85.6818C58.6151 84.7727 58.7798 83.9792 59.1094 83.3011C59.4427 82.6231 59.9048 82.0966 60.4957 81.7216C61.0904 81.3466 61.7817 81.1591 62.5696 81.1591C63.3575 81.1591 64.0469 81.3466 64.6378 81.7216C65.2325 82.0966 65.6946 82.6231 66.0241 83.3011C66.3575 83.9792 66.5241 84.7727 66.5241 85.6818C66.5241 86.5833 66.3575 87.3712 66.0241 88.0455C65.6946 88.7197 65.2325 89.2443 64.6378 89.6193C64.0469 89.9943 63.3575 90.1818 62.5696 90.1818ZM62.5696 88.9773C63.1681 88.9773 63.6605 88.8239 64.0469 88.517C64.4332 88.2102 64.7192 87.8068 64.9048 87.3068C65.0904 86.8068 65.1832 86.2652 65.1832 85.6818C65.1832 85.0985 65.0904 84.5549 64.9048 84.0511C64.7192 83.5473 64.4332 83.1402 64.0469 82.8295C63.6605 82.5189 63.1681 82.3636 62.5696 82.3636C61.9711 82.3636 61.4787 82.5189 61.0923 82.8295C60.706 83.1402 60.42 83.5473 60.2344 84.0511C60.0488 84.5549 59.956 85.0985 59.956 85.6818C59.956 86.2652 60.0488 86.8068 60.2344 87.3068C60.42 87.8068 60.706 88.2102 61.0923 88.517C61.4787 88.8239 61.9711 88.9773 62.5696 88.9773ZM69.1222 93.2727C68.8949 93.2727 68.6922 93.2538 68.5142 93.2159C68.3362 93.1818 68.2131 93.1477 68.1449 93.1136L68.4858 91.9318C68.8116 92.0152 69.0994 92.0455 69.3494 92.0227C69.5994 92 69.821 91.8883 70.0142 91.6875C70.2112 91.4905 70.3911 91.1705 70.554 90.7273L70.804 90.0455L67.5767 81.2727H69.0312L71.4403 88.2273H71.5312L73.9403 81.2727H75.3949L71.6903 91.2727C71.5237 91.7235 71.3172 92.0966 71.071 92.392C70.8248 92.6913 70.5388 92.9129 70.2131 93.0568C69.8911 93.2008 69.5275 93.2727 69.1222 93.2727Z" fill="white"/>
<path fill-rule="evenodd" clip-rule="evenodd" d="M47.5654 71.7553C34.0218 72.4156 22.5032 61.6798 21.7842 47.7263C21.0651 33.7728 31.4157 21.8402 44.9509 21.0184C58.4861 20.1966 70.1245 30.7942 71.0002 44.7383L61.2578 45.3881C60.7289 36.9665 53.6998 30.5659 45.525 31.0622C37.3503 31.5586 31.099 38.7654 31.5333 47.1927C31.9674 55.6201 38.9243 62.1041 47.1041 61.7053L47.5654 71.7553Z" fill="white"/>
<path fill-rule="evenodd" clip-rule="evenodd" d="M52.6139 44.7683L60.3623 64.3136L78.2511 44.7683H52.6139Z" fill="white"/>
</g>
<defs>
<clipPath id="clip0_2_148">
<rect width="100" height="100" fill="white"/>
</clipPath>
</defs>
</svg>
