<svg width="100" height="100" viewBox="0 0 100 100" fill="none" xmlns="http://www.w3.org/2000/svg">
<g clip-path="url(#clip0_2_169)">
<path d="M49.671 2.64664C48.8336 2.69012 48.0131 2.9041 47.2576 3.27603L14.3248 19.4927C13.4725 19.9122 12.7235 20.5226 12.1336 21.2786C11.5437 22.0345 11.128 22.9166 10.9174 23.8594L2.79268 60.286C2.60507 61.1253 2.58407 61.9945 2.73093 62.8422C2.8778 63.69 3.18954 64.499 3.6477 65.2214C3.75879 65.3979 3.87827 65.5689 4.0057 65.7335L26.8005 94.9417C27.3905 95.6975 28.1395 96.3077 28.9919 96.727C29.8443 97.1463 30.7782 97.364 31.7242 97.3638L68.2792 97.3551C69.2248 97.3558 70.1585 97.1388 71.0108 96.7203C71.8632 96.3017 72.6124 95.6924 73.2029 94.9374L95.9892 65.7249C96.5796 64.9687 96.9956 64.0863 97.2063 63.1432C97.417 62.2001 97.4171 61.2205 97.2065 60.2774L89.0691 23.8507C88.8585 22.908 88.4428 22.0259 87.8529 21.2699C87.263 20.5139 86.514 19.9035 85.6617 19.484L52.7247 3.27603C51.7744 2.80817 50.7244 2.59175 49.671 2.64664Z" fill="#326CE5"/>
<path d="M49.6534 0.00897171C48.7703 0.0566405 47.9055 0.283895 47.1094 0.677431L12.3402 17.7926C11.4404 18.2355 10.6498 18.8799 10.0271 19.6779C9.4044 20.476 8.96558 21.4072 8.74327 22.4023L0.167864 60.8561C-0.0307917 61.7425 -0.0533772 62.6606 0.101447 63.5561C0.256272 64.4515 0.585354 65.3061 1.0692 66.0692C1.18691 66.2548 1.31341 66.4344 1.44825 66.6074L25.5108 97.4434C26.1337 98.2411 26.9243 98.8852 27.8241 99.3278C28.7239 99.7704 29.7097 100 30.7083 100L69.2976 99.9913C70.2958 99.992 71.2814 99.7629 72.1812 99.3211C73.0809 98.8792 73.8718 98.236 74.4951 97.439L98.5492 66.5987C99.1718 65.8009 99.6106 64.8699 99.833 63.875C100.055 62.8801 100.056 61.8468 99.8339 60.8517L91.2458 22.3937C91.0229 21.3993 90.5839 20.4689 89.9612 19.6717C89.3385 18.8744 88.5482 18.2307 87.6489 17.7882L52.8797 0.673091C51.8757 0.178835 50.7663 -0.0495361 49.6534 0.00897171ZM49.6702 2.64808C50.7236 2.59319 51.7736 2.80961 52.7238 3.27748L85.6608 19.4854C86.5132 19.9049 87.2622 20.5154 87.8521 21.2713C88.442 22.0273 88.8577 22.9094 89.0683 23.8521L97.2057 60.2788C97.4163 61.2219 97.4162 62.2015 97.2055 63.1446C96.9948 64.0877 96.5788 64.9701 95.9884 65.7263L73.2021 94.9388C72.6116 95.6938 71.8624 96.3032 71.01 96.7218C70.1577 97.1403 69.224 97.3573 68.2784 97.3566L31.7234 97.3653C30.7774 97.3655 29.8435 97.1478 28.9911 96.7285C28.1387 96.3092 27.3897 95.699 26.7997 94.9432L4.00489 65.735C3.87746 65.5704 3.75798 65.3994 3.64689 65.2228C3.18873 64.5004 2.87699 63.6914 2.73013 62.8437C2.58327 61.996 2.60426 61.1268 2.79188 60.2875L10.9166 23.8608C11.1272 22.9181 11.5429 22.036 12.1328 21.2801C12.7227 20.5241 13.4717 19.9137 14.324 19.4942L47.2568 3.27752C48.0123 2.90558 48.8328 2.6916 49.6702 2.64812L49.6702 2.64808Z" fill="white"/>
<path d="M44.8864 89.1818C44.0455 89.1818 43.3201 88.9962 42.7102 88.625C42.1042 88.25 41.6364 87.7273 41.3068 87.0568C40.9811 86.3826 40.8182 85.5985 40.8182 84.7045C40.8182 83.8106 40.9811 83.0227 41.3068 82.3409C41.6364 81.6553 42.0947 81.1212 42.6818 80.7386C43.2727 80.3523 43.9621 80.1591 44.75 80.1591C45.2045 80.1591 45.6534 80.2348 46.0966 80.3864C46.5398 80.5379 46.9432 80.7841 47.3068 81.125C47.6705 81.4621 47.9602 81.9091 48.1761 82.4659C48.392 83.0227 48.5 83.7083 48.5 84.5227V85.0909H41.7727V83.9318H47.1364C47.1364 83.4394 47.0379 83 46.8409 82.6136C46.6477 82.2273 46.3712 81.9223 46.0114 81.6989C45.6553 81.4754 45.2348 81.3636 44.75 81.3636C44.2159 81.3636 43.7538 81.4962 43.3636 81.7614C42.9773 82.0227 42.6799 82.3636 42.4716 82.7841C42.2633 83.2045 42.1591 83.6553 42.1591 84.1364V84.9091C42.1591 85.5682 42.2727 86.1269 42.5 86.5852C42.7311 87.0398 43.0511 87.3864 43.4602 87.625C43.8693 87.8598 44.3447 87.9773 44.8864 87.9773C45.2386 87.9773 45.5568 87.928 45.8409 87.8295C46.1288 87.7273 46.3769 87.5758 46.5852 87.375C46.7936 87.1705 46.9545 86.9167 47.0682 86.6136L48.3636 86.9773C48.2273 87.4167 47.9981 87.803 47.6761 88.1364C47.3542 88.4659 46.9564 88.7235 46.483 88.9091C46.0095 89.0909 45.4773 89.1818 44.8864 89.1818ZM50.5398 92.2727V80.2727H51.8352V81.6591H51.9943C52.0928 81.5076 52.2292 81.3144 52.4034 81.0795C52.5814 80.8409 52.8352 80.6288 53.1648 80.4432C53.4981 80.2538 53.9489 80.1591 54.517 80.1591C55.2519 80.1591 55.8996 80.3428 56.4602 80.7102C57.0208 81.0777 57.4583 81.5985 57.7727 82.2727C58.0871 82.947 58.2443 83.7424 58.2443 84.6591C58.2443 85.5833 58.0871 86.3845 57.7727 87.0625C57.4583 87.7367 57.0227 88.2595 56.4659 88.6307C55.9091 88.9981 55.267 89.1818 54.5398 89.1818C53.9792 89.1818 53.5303 89.089 53.1932 88.9034C52.8561 88.714 52.5966 88.5 52.4148 88.2614C52.233 88.0189 52.0928 87.8182 51.9943 87.6591H51.8807V92.2727H50.5398ZM51.858 84.6364C51.858 85.2955 51.9545 85.8769 52.1477 86.3807C52.3409 86.8807 52.6231 87.2727 52.9943 87.5568C53.3655 87.8371 53.8201 87.9773 54.358 87.9773C54.9186 87.9773 55.3864 87.8295 55.7614 87.5341C56.1402 87.2348 56.4242 86.8333 56.6136 86.3295C56.8068 85.822 56.9034 85.2576 56.9034 84.6364C56.9034 84.0227 56.8087 83.4697 56.6193 82.9773C56.4337 82.4811 56.1515 82.089 55.7727 81.8011C55.3977 81.5095 54.9261 81.3636 54.358 81.3636C53.8125 81.3636 53.3542 81.5019 52.983 81.7784C52.6117 82.0511 52.3314 82.4337 52.142 82.9261C51.9527 83.4148 51.858 83.9848 51.858 84.6364Z" fill="white"/>
<path fill-rule="evenodd" clip-rule="evenodd" d="M19.9317 57.8383H36.0574V69.5047H19.9317V57.8383Z" fill="white"/>
<path fill-rule="evenodd" clip-rule="evenodd" d="M41.9371 57.8383H58.0629V69.5047H41.9371V57.8383Z" fill="white"/>
<path fill-rule="evenodd" clip-rule="evenodd" d="M63.9425 57.8383H80.0683V69.5047H63.9425V57.8383Z" fill="white"/>
<path fill-rule="evenodd" clip-rule="evenodd" d="M37.2242 23.2531H62.7758V34.9196H37.2242V23.2531Z" fill="white"/>
<path d="M42.919 40.2381L40.3646 37.6041L28.9555 49.3552L31.5099 51.9892L42.919 40.2381Z" fill="white"/>
<path d="M26.9149 54.152L28.3587 48.5069L29.8025 42.8619L33.8244 46.9729L37.8462 51.0839L32.3806 52.618L26.9149 54.152Z" fill="white"/>
<path d="M54.6526 40.238L57.207 37.604L68.6161 49.3551L66.0617 51.9891L54.6526 40.238Z" fill="white"/>
<path d="M70.6568 54.1519L69.2129 48.5068L67.7691 42.8618L63.7472 46.9728L59.7254 51.0838L65.1911 52.6179L70.6568 54.1519Z" fill="white"/>
<path d="M47.7248 38.5982L51.3382 38.6161L51.238 51.4646L47.6246 51.4468L47.7248 38.5982Z" fill="white"/>
<path d="M49.359 56.3311L52.2431 51.3065L55.1273 46.2819L49.4629 46.2201L43.7985 46.1583L46.5788 51.2447L49.359 56.3311Z" fill="white"/>
</g>
<defs>
<clipPath id="clip0_2_169">
<rect width="100" height="100" fill="white"/>
</clipPath>
</defs>
</svg>
