<svg width="800" height="800" viewBox="0 0 800 800" fill="none" xmlns="http://www.w3.org/2000/svg">
<path d="M297.606 613.25C297.606 613.25 267.812 630.587 318.837 636.437C380.662 643.5 412.256 642.487 480.369 629.612C480.369 629.612 498.312 640.831 523.325 650.556C370.581 715.994 177.65 646.762 297.606 613.25ZM278.931 527.844C278.931 527.844 245.506 552.587 296.575 557.875C362.619 564.694 414.762 565.25 505.037 547.875C505.037 547.875 517.494 560.531 537.112 567.444C352.475 621.444 146.825 571.694 278.931 527.844Z" fill="#0074BD"/>
<path d="M436.262 382.944C473.918 426.288 426.387 465.257 426.387 465.257C426.387 465.257 521.943 415.938 478.068 354.15C437.074 296.557 405.649 267.95 575.787 169.275C575.787 169.282 308.718 235.963 436.262 382.944Z" fill="#EA2D2E"/>
<path d="M638.269 676.432C638.269 676.432 660.325 694.619 613.969 708.675C525.832 735.375 247.057 743.425 169.632 709.744C141.813 697.632 194 680.838 210.419 677.294C227.538 673.588 237.313 674.263 237.313 674.263C206.357 652.469 37.2316 717.075 151.419 735.607C462.8 786.082 719.025 712.875 638.269 676.432ZM311.95 439.338C311.95 439.338 170.163 473.019 261.744 485.263C300.419 490.438 377.482 489.25 449.313 483.225C508 478.294 566.894 467.763 566.894 467.763C566.894 467.763 546.219 476.632 531.244 486.844C387.232 524.725 109.094 507.082 189.175 468.357C256.875 435.613 311.95 439.338 311.95 439.338ZM566.307 581.507C712.688 505.463 645 432.382 597.757 442.225C586.207 444.632 581.025 446.725 581.025 446.725C581.025 446.725 585.325 439.982 593.525 437.082C686.982 404.238 758.844 533.975 563.382 585.363C563.382 585.35 565.625 583.319 566.307 581.507Z" fill="#0074BD"/>
<path d="M478.069 9.91895C478.069 9.91895 559.119 91.0189 401.175 215.688C274.513 315.725 372.294 372.75 401.132 437.931C327.188 371.225 272.95 312.494 309.332 257.838C362.757 177.625 510.763 138.719 478.069 9.91895Z" fill="#EA2D2E"/>
<path d="M326.337 787.631C466.812 796.613 682.587 782.631 687.693 716.156C687.693 716.156 677.874 741.356 571.587 761.35C451.674 783.925 303.749 781.294 216.043 766.813C216.043 766.819 234.012 781.694 326.337 787.631Z" fill="#0074BD"/>
</svg>
