<svg width="100" height="100" viewBox="0 0 100 100" fill="none" xmlns="http://www.w3.org/2000/svg">
<g clip-path="url(#clip0_2_70)">
<path d="M49.6711 2.64664C48.8336 2.69012 48.0131 2.9041 47.2577 3.27603L14.3249 19.4927C13.4725 19.9122 12.7236 20.5226 12.1336 21.2786C11.5437 22.0345 11.1281 22.9166 10.9175 23.8594L2.79271 60.286C2.6051 61.1253 2.5841 61.9945 2.73096 62.8422C2.87783 63.69 3.18957 64.499 3.64773 65.2214C3.75882 65.3979 3.8783 65.5689 4.00573 65.7335L26.8005 94.9417C27.3905 95.6975 28.1396 96.3077 28.992 96.727C29.8444 97.1463 30.7782 97.364 31.7242 97.3638L68.2792 97.3551C69.2248 97.3558 70.1585 97.1388 71.0109 96.7203C71.8633 96.3017 72.6125 95.6924 73.2029 94.9374L95.9893 65.7249C96.5796 64.9687 96.9956 64.0863 97.2063 63.1432C97.4171 62.2001 97.4171 61.2205 97.2065 60.2774L89.0691 23.8507C88.8585 22.908 88.4428 22.0259 87.8529 21.2699C87.263 20.5139 86.5141 19.9035 85.6617 19.484L52.7247 3.27603C51.7744 2.80817 50.7245 2.59175 49.6711 2.64664Z" fill="#326CE5"/>
<path d="M49.6534 0.00897171C48.7703 0.0566405 47.9055 0.283895 47.1094 0.677431L12.3402 17.7926C11.4404 18.2355 10.6498 18.8799 10.0271 19.6779C9.4044 20.476 8.96558 21.4072 8.74327 22.4023L0.167864 60.8561C-0.0307917 61.7425 -0.0533772 62.6606 0.101447 63.5561C0.256272 64.4515 0.585354 65.3061 1.0692 66.0692C1.18691 66.2548 1.31341 66.4344 1.44825 66.6074L25.5108 97.4434C26.1337 98.2411 26.9243 98.8852 27.8241 99.3278C28.7239 99.7704 29.7097 100 30.7083 100L69.2976 99.9913C70.2958 99.992 71.2814 99.7629 72.1812 99.3211C73.0809 98.8792 73.8718 98.236 74.4951 97.439L98.5492 66.5987C99.1718 65.8009 99.6106 64.8699 99.833 63.875C100.055 62.8801 100.056 61.8468 99.8339 60.8517L91.2458 22.3937C91.0229 21.3993 90.5839 20.4689 89.9612 19.6717C89.3385 18.8744 88.5482 18.2307 87.6489 17.7882L52.8797 0.673091C51.8757 0.178835 50.7663 -0.0495361 49.6534 0.00897171ZM49.6702 2.64808C50.7236 2.59319 51.7736 2.80961 52.7238 3.27748L85.6608 19.4854C86.5132 19.9049 87.2622 20.5154 87.8521 21.2713C88.442 22.0273 88.8577 22.9094 89.0683 23.8521L97.2057 60.2788C97.4163 61.2219 97.4162 62.2015 97.2055 63.1446C96.9948 64.0877 96.5788 64.9701 95.9884 65.7263L73.2021 94.9388C72.6116 95.6938 71.8624 96.3032 71.01 96.7218C70.1577 97.1403 69.224 97.3573 68.2784 97.3566L31.7234 97.3653C30.7774 97.3655 29.8435 97.1478 28.9911 96.7285C28.1387 96.3092 27.3897 95.699 26.7997 94.9432L4.00489 65.735C3.87746 65.5704 3.75798 65.3994 3.64689 65.2228C3.18873 64.5004 2.87699 63.6914 2.73013 62.8437C2.58327 61.996 2.60426 61.1268 2.79188 60.2875L10.9166 23.8608C11.1272 22.9181 11.5429 22.036 12.1328 21.2801C12.7227 20.5241 13.4717 19.9137 14.324 19.4942L47.2568 3.27752C48.0123 2.90558 48.8328 2.6916 49.6702 2.64812L49.6702 2.64808Z" fill="white"/>
<path d="M33.5682 83.75V89H32.2273V80.2727H33.5227V81.6364H33.6364C33.8409 81.1932 34.1515 80.8371 34.5682 80.5682C34.9848 80.2955 35.5227 80.1591 36.1818 80.1591C36.7727 80.1591 37.2898 80.2803 37.733 80.5227C38.1761 80.7614 38.5208 81.125 38.767 81.6136C39.0133 82.0985 39.1364 82.7121 39.1364 83.4545V89H37.7955V83.5455C37.7955 82.8598 37.6174 82.3258 37.2614 81.9432C36.9053 81.5568 36.4167 81.3636 35.7955 81.3636C35.3674 81.3636 34.9848 81.4564 34.6477 81.642C34.3144 81.8277 34.0511 82.0985 33.858 82.4545C33.6648 82.8106 33.5682 83.2424 33.5682 83.75ZM45.1321 89.1818C44.3442 89.1818 43.6529 88.9943 43.0582 88.6193C42.4673 88.2443 42.0052 87.7197 41.6719 87.0455C41.3423 86.3712 41.1776 85.5833 41.1776 84.6818C41.1776 83.7727 41.3423 82.9792 41.6719 82.3011C42.0052 81.6231 42.4673 81.0966 43.0582 80.7216C43.6529 80.3466 44.3442 80.1591 45.1321 80.1591C45.92 80.1591 46.6094 80.3466 47.2003 80.7216C47.795 81.0966 48.2571 81.6231 48.5866 82.3011C48.92 82.9792 49.0866 83.7727 49.0866 84.6818C49.0866 85.5833 48.92 86.3712 48.5866 87.0455C48.2571 87.7197 47.795 88.2443 47.2003 88.6193C46.6094 88.9943 45.92 89.1818 45.1321 89.1818ZM45.1321 87.9773C45.7306 87.9773 46.223 87.8239 46.6094 87.517C46.9957 87.2102 47.2817 86.8068 47.4673 86.3068C47.6529 85.8068 47.7457 85.2652 47.7457 84.6818C47.7457 84.0985 47.6529 83.5549 47.4673 83.0511C47.2817 82.5473 46.9957 82.1402 46.6094 81.8295C46.223 81.5189 45.7306 81.3636 45.1321 81.3636C44.5336 81.3636 44.0412 81.5189 43.6548 81.8295C43.2685 82.1402 42.9825 82.5473 42.7969 83.0511C42.6113 83.5549 42.5185 84.0985 42.5185 84.6818C42.5185 85.2652 42.6113 85.8068 42.7969 86.3068C42.9825 86.8068 43.2685 87.2102 43.6548 87.517C44.0412 87.8239 44.5336 87.9773 45.1321 87.9773ZM54.429 89.1818C53.7017 89.1818 53.0597 88.9981 52.5028 88.6307C51.946 88.2595 51.5104 87.7367 51.196 87.0625C50.8816 86.3845 50.7244 85.5833 50.7244 84.6591C50.7244 83.7424 50.8816 82.947 51.196 82.2727C51.5104 81.5985 51.9479 81.0777 52.5085 80.7102C53.0691 80.3428 53.7169 80.1591 54.4517 80.1591C55.0199 80.1591 55.4688 80.2538 55.7983 80.4432C56.1316 80.6288 56.3854 80.8409 56.5597 81.0795C56.7377 81.3144 56.8759 81.5076 56.9744 81.6591H57.0881V77.3636H58.429V89H57.1335V87.6591H56.9744C56.8759 87.8182 56.7358 88.0189 56.554 88.2614C56.3722 88.5 56.1127 88.714 55.7756 88.9034C55.4384 89.089 54.9896 89.1818 54.429 89.1818ZM54.6108 87.9773C55.1487 87.9773 55.6032 87.8371 55.9744 87.5568C56.3456 87.2727 56.6278 86.8807 56.821 86.3807C57.0142 85.8769 57.1108 85.2955 57.1108 84.6364C57.1108 83.9848 57.0161 83.4148 56.8267 82.9261C56.6373 82.4337 56.357 82.0511 55.9858 81.7784C55.6146 81.5019 55.1563 81.3636 54.6108 81.3636C54.0426 81.3636 53.5691 81.5095 53.1903 81.8011C52.8153 82.089 52.5331 82.4811 52.3438 82.9773C52.1581 83.4697 52.0653 84.0227 52.0653 84.6364C52.0653 85.2576 52.16 85.822 52.3494 86.3295C52.5426 86.8333 52.8267 87.2348 53.2017 87.5341C53.5805 87.8295 54.0502 87.9773 54.6108 87.9773ZM64.7301 89.1818C63.8892 89.1818 63.1638 88.9962 62.554 88.625C61.9479 88.25 61.4801 87.7273 61.1506 87.0568C60.8248 86.3826 60.6619 85.5985 60.6619 84.7045C60.6619 83.8106 60.8248 83.0227 61.1506 82.3409C61.4801 81.6553 61.9384 81.1212 62.5256 80.7386C63.1165 80.3523 63.8059 80.1591 64.5938 80.1591C65.0483 80.1591 65.4972 80.2348 65.9403 80.3864C66.3835 80.5379 66.7869 80.7841 67.1506 81.125C67.5142 81.4621 67.804 81.9091 68.0199 82.4659C68.2358 83.0227 68.3438 83.7083 68.3438 84.5227V85.0909H61.6165V83.9318H66.9801C66.9801 83.4394 66.8816 83 66.6847 82.6136C66.4915 82.2273 66.215 81.9223 65.8551 81.6989C65.4991 81.4754 65.0786 81.3636 64.5938 81.3636C64.0597 81.3636 63.5975 81.4962 63.2074 81.7614C62.821 82.0227 62.5237 82.3636 62.3153 82.7841C62.107 83.2045 62.0028 83.6553 62.0028 84.1364V84.9091C62.0028 85.5682 62.1165 86.1269 62.3438 86.5852C62.5748 87.0398 62.8949 87.3864 63.304 87.625C63.7131 87.8598 64.1884 87.9773 64.7301 87.9773C65.0824 87.9773 65.4006 87.928 65.6847 87.8295C65.9725 87.7273 66.2206 87.5758 66.429 87.375C66.6373 87.1705 66.7983 86.9167 66.9119 86.6136L68.2074 86.9773C68.071 87.4167 67.8419 87.803 67.5199 88.1364C67.1979 88.4659 66.8002 88.7235 66.3267 88.9091C65.8532 89.0909 65.321 89.1818 64.7301 89.1818Z" fill="white"/>
<path d="M49.6958 18C48.9288 17.9749 27.5443 28.8105 27.2646 29.3662C26.5928 30.7015 21.7261 53.8333 22.0121 54.3318C22.1785 54.6212 25.6837 59.1995 29.8001 64.5049L37.2844 74.1505L49.6001 74.1558L61.9184 74.1611L69.7542 64.0714L77.5924 53.9846L74.849 41.593C73.3397 34.7774 71.9898 29.0869 71.8519 28.9498C71.4665 28.5677 50.1115 18.0139 49.6958 18ZM50.7833 23.4157L55.823 24.9218L50.7833 26.4279L45.7436 24.9218L50.7833 23.4157ZM45.7436 25.4986L50.4628 26.9456L50.4406 33.7071L45.7454 31.0251L45.7436 25.4986ZM55.823 25.4986V31.0251L51.1279 33.7071L51.1057 26.9456L55.823 25.4986ZM43.6387 34.7251L48.6785 36.2312L43.6387 37.7374L38.5991 36.2312L43.6387 34.7251ZM55.8852 34.7251L60.925 36.2312L55.8852 37.7374L50.8455 36.2312L55.8852 34.7251ZM38.5991 36.808L43.3182 38.2525L43.2961 45.0141L38.6007 42.3346L38.5991 36.808ZM48.6785 36.808V42.3346L43.9832 45.0141L43.961 38.2525L48.6785 36.808ZM50.8455 36.808L55.5648 38.2525L55.5426 45.0141L50.8472 42.3346L50.8455 36.808ZM60.925 36.808V42.3346L56.2297 45.0141L56.2075 38.2525L60.925 36.808ZM41.7978 45.4652C43.2983 45.52 42.1366 47.076 43.8405 47.9104C45.6578 48.8005 46.0329 46.5656 47.1747 48.2728C48.3169 49.98 46.1579 49.5484 46.3185 51.6153C46.4793 53.6822 48.5455 52.9002 47.6818 54.773C46.8183 56.6458 46.0998 54.5008 44.4433 55.6777C42.7868 56.8545 44.4765 58.3074 42.4723 58.473C40.4666 58.6386 41.9096 56.9276 40.0924 56.0376C38.2751 55.1475 37.9001 57.3799 36.7581 55.6727C35.6161 53.9655 37.7774 54.3995 37.6167 52.3326C37.4559 50.2657 35.3897 51.0477 36.2534 49.175C37.117 47.3021 37.833 49.4472 39.4896 48.2703C41.1463 47.0934 39.4563 45.6406 41.463 45.475C41.5877 45.4647 41.698 45.4623 41.7978 45.4652ZM54.7499 47.5382C57.4299 47.6158 54.8309 50.208 57.2781 51.3368C59.7257 52.4656 59.8682 48.742 61.7103 50.7501C63.5523 52.7583 59.9362 52.6966 60.8923 55.2784C61.8484 57.8601 64.5054 55.3309 64.4299 58.0934C64.354 60.8557 61.8393 58.1766 60.744 60.6989C59.6486 63.2212 63.2618 63.3682 61.3132 65.2666C59.3647 67.1649 59.4268 63.4382 56.9217 64.4235C54.4165 65.4089 56.8718 68.1469 54.1901 68.0693C51.5099 67.9917 54.1092 65.3995 51.662 64.2707C49.2145 63.1419 49.0694 66.8655 47.2274 64.8574C45.3854 62.8492 49.0016 62.9134 48.0455 60.3316C47.0893 57.7499 44.4324 60.279 44.5078 57.5166C44.5837 54.7543 47.0983 57.4309 48.1938 54.9086C49.289 52.3863 45.6759 52.2393 47.6244 50.341C49.5731 48.4426 49.5132 52.1693 52.0183 51.184C54.5236 50.1986 52.0682 47.4606 54.7499 47.5382ZM41.915 48.9876C40.2868 48.9882 38.9674 50.349 38.9683 52.027C38.9687 53.704 40.2877 55.0634 41.915 55.0639C43.5432 55.0648 44.8638 53.705 44.8642 52.027C44.8651 50.348 43.5442 48.9867 41.915 48.9876ZM54.4701 51.7337C51.216 51.7325 48.5777 54.4514 48.5788 57.805C48.5791 61.1576 51.217 63.875 54.4701 63.8738C57.7223 63.8735 60.3586 61.1566 60.3589 57.805C60.36 54.4524 57.7232 51.734 54.4701 51.7337Z" fill="white"/>
</g>
<defs>
<clipPath id="clip0_2_70">
<rect width="100" height="100" fill="white"/>
</clipPath>
</defs>
</svg>
