<svg width="100" height="100" viewBox="0 0 100 100" fill="none" xmlns="http://www.w3.org/2000/svg">
<g clip-path="url(#clip0_2_250)">
<path d="M49.6711 2.64662C48.8336 2.6901 48.0131 2.90408 47.2577 3.27602L14.3249 19.4927C13.4725 19.9122 12.7236 20.5226 12.1336 21.2786C11.5437 22.0345 11.1281 22.9166 10.9175 23.8593L2.79271 60.286C2.6051 61.1253 2.5841 61.9945 2.73096 62.8422C2.87783 63.6899 3.18957 64.4989 3.64773 65.2213C3.75882 65.3979 3.8783 65.5689 4.00573 65.7335L26.8005 94.9417C27.3905 95.6975 28.1396 96.3077 28.992 96.727C29.8444 97.1463 30.7782 97.364 31.7242 97.3638L68.2792 97.3551C69.2248 97.3558 70.1585 97.1388 71.0109 96.7203C71.8633 96.3017 72.6125 95.6923 73.2029 94.9374L95.9893 65.7249C96.5796 64.9687 96.9956 64.0863 97.2063 63.1432C97.4171 62.2 97.4171 61.2205 97.2065 60.2774L89.0691 23.8507C88.8585 22.9079 88.4428 22.0258 87.8529 21.2699C87.263 20.5139 86.5141 19.9035 85.6617 19.484L52.7247 3.27602C51.7744 2.80815 50.7245 2.59173 49.6711 2.64662Z" fill="#326CE5"/>
<path d="M49.6534 0.00897171C48.7703 0.0566405 47.9055 0.283895 47.1094 0.677431L12.3402 17.7926C11.4404 18.2355 10.6498 18.8799 10.0271 19.6779C9.4044 20.476 8.96558 21.4072 8.74327 22.4023L0.167864 60.8561C-0.0307917 61.7425 -0.0533772 62.6606 0.101447 63.5561C0.256272 64.4515 0.585354 65.3061 1.0692 66.0692C1.18691 66.2548 1.31341 66.4344 1.44825 66.6074L25.5108 97.4434C26.1337 98.2411 26.9243 98.8852 27.8241 99.3278C28.7239 99.7704 29.7097 100 30.7083 100L69.2976 99.9913C70.2958 99.992 71.2814 99.7629 72.1812 99.3211C73.0809 98.8792 73.8718 98.236 74.4951 97.439L98.5492 66.5987C99.1718 65.8009 99.6106 64.8699 99.833 63.875C100.055 62.8801 100.056 61.8468 99.8339 60.8517L91.2458 22.3937C91.0229 21.3993 90.5839 20.4689 89.9612 19.6717C89.3385 18.8744 88.5482 18.2307 87.6489 17.7882L52.8797 0.673091C51.8757 0.178835 50.7663 -0.0495361 49.6534 0.00897171ZM49.6702 2.64808C50.7236 2.59319 51.7736 2.80961 52.7238 3.27748L85.6608 19.4854C86.5132 19.9049 87.2622 20.5154 87.8521 21.2713C88.442 22.0273 88.8577 22.9094 89.0683 23.8521L97.2057 60.2788C97.4163 61.2219 97.4162 62.2015 97.2055 63.1446C96.9948 64.0877 96.5788 64.9701 95.9884 65.7263L73.2021 94.9388C72.6116 95.6938 71.8624 96.3032 71.01 96.7218C70.1577 97.1403 69.224 97.3573 68.2784 97.3566L31.7234 97.3653C30.7774 97.3655 29.8435 97.1478 28.9911 96.7285C28.1387 96.3092 27.3897 95.699 26.7997 94.9432L4.00489 65.735C3.87746 65.5704 3.75798 65.3994 3.64689 65.2228C3.18873 64.5004 2.87699 63.6914 2.73013 62.8437C2.58327 61.996 2.60426 61.1268 2.79188 60.2875L10.9166 23.8608C11.1272 22.9181 11.5429 22.036 12.1328 21.2801C12.7227 20.5241 13.4717 19.9137 14.324 19.4942L47.2568 3.27752C48.0123 2.90558 48.8328 2.6916 49.6702 2.64812L49.6702 2.64808Z" fill="white"/>
<path d="M36.2273 93.2727V81.2727H37.5227V82.6591H37.6818C37.7803 82.5076 37.9167 82.3144 38.0909 82.0795C38.2689 81.8409 38.5227 81.6288 38.8523 81.4432C39.1856 81.2538 39.6364 81.1591 40.2045 81.1591C40.9394 81.1591 41.5871 81.3428 42.1477 81.7102C42.7083 82.0777 43.1458 82.5985 43.4602 83.2727C43.7746 83.947 43.9318 84.7424 43.9318 85.6591C43.9318 86.5833 43.7746 87.3845 43.4602 88.0625C43.1458 88.7367 42.7102 89.2595 42.1534 89.6307C41.5966 89.9981 40.9545 90.1818 40.2273 90.1818C39.6667 90.1818 39.2178 90.089 38.8807 89.9034C38.5436 89.714 38.2841 89.5 38.1023 89.2614C37.9205 89.0189 37.7803 88.8182 37.6818 88.6591H37.5682V93.2727H36.2273ZM37.5455 85.6364C37.5455 86.2955 37.642 86.8769 37.8352 87.3807C38.0284 87.8807 38.3106 88.2727 38.6818 88.5568C39.053 88.8371 39.5076 88.9773 40.0455 88.9773C40.6061 88.9773 41.0739 88.8295 41.4489 88.5341C41.8277 88.2348 42.1117 87.8333 42.3011 87.3295C42.4943 86.822 42.5909 86.2576 42.5909 85.6364C42.5909 85.0227 42.4962 84.4697 42.3068 83.9773C42.1212 83.4811 41.839 83.089 41.4602 82.8011C41.0852 82.5095 40.6136 82.3636 40.0455 82.3636C39.5 82.3636 39.0417 82.5019 38.6705 82.7784C38.2992 83.0511 38.0189 83.4337 37.8295 83.9261C37.6402 84.4148 37.5455 84.9848 37.5455 85.6364ZM49.5227 90.1818C48.7348 90.1818 48.0436 89.9943 47.4489 89.6193C46.858 89.2443 46.3958 88.7197 46.0625 88.0455C45.733 87.3712 45.5682 86.5833 45.5682 85.6818C45.5682 84.7727 45.733 83.9792 46.0625 83.3011C46.3958 82.6231 46.858 82.0966 47.4489 81.7216C48.0436 81.3466 48.7348 81.1591 49.5227 81.1591C50.3106 81.1591 51 81.3466 51.5909 81.7216C52.1856 82.0966 52.6477 82.6231 52.9773 83.3011C53.3106 83.9792 53.4773 84.7727 53.4773 85.6818C53.4773 86.5833 53.3106 87.3712 52.9773 88.0455C52.6477 88.7197 52.1856 89.2443 51.5909 89.6193C51 89.9943 50.3106 90.1818 49.5227 90.1818ZM49.5227 88.9773C50.1212 88.9773 50.6136 88.8239 51 88.517C51.3864 88.2102 51.6723 87.8068 51.858 87.3068C52.0436 86.8068 52.1364 86.2652 52.1364 85.6818C52.1364 85.0985 52.0436 84.5549 51.858 84.0511C51.6723 83.5473 51.3864 83.1402 51 82.8295C50.6136 82.5189 50.1212 82.3636 49.5227 82.3636C48.9242 82.3636 48.4318 82.5189 48.0455 82.8295C47.6591 83.1402 47.3731 83.5473 47.1875 84.0511C47.0019 84.5549 46.9091 85.0985 46.9091 85.6818C46.9091 86.2652 47.0019 86.8068 47.1875 87.3068C47.3731 87.8068 47.6591 88.2102 48.0455 88.517C48.4318 88.8239 48.9242 88.9773 49.5227 88.9773ZM58.8196 90.1818C58.0923 90.1818 57.4503 89.9981 56.8935 89.6307C56.3366 89.2595 55.901 88.7367 55.5866 88.0625C55.2723 87.3845 55.1151 86.5833 55.1151 85.6591C55.1151 84.7424 55.2723 83.947 55.5866 83.2727C55.901 82.5985 56.3385 82.0777 56.8991 81.7102C57.4598 81.3428 58.1075 81.1591 58.8423 81.1591C59.4105 81.1591 59.8594 81.2538 60.1889 81.4432C60.5223 81.6288 60.776 81.8409 60.9503 82.0795C61.1283 82.3144 61.2666 82.5076 61.3651 82.6591H61.4787V78.3636H62.8196V90H61.5241V88.6591H61.3651C61.2666 88.8182 61.1264 89.0189 60.9446 89.2614C60.7628 89.5 60.5033 89.714 60.1662 89.9034C59.8291 90.089 59.3802 90.1818 58.8196 90.1818ZM59.0014 88.9773C59.5393 88.9773 59.9938 88.8371 60.3651 88.5568C60.7363 88.2727 61.0185 87.8807 61.2116 87.3807C61.4048 86.8769 61.5014 86.2955 61.5014 85.6364C61.5014 84.9848 61.4067 84.4148 61.2173 83.9261C61.0279 83.4337 60.7476 83.0511 60.3764 82.7784C60.0052 82.5019 59.5469 82.3636 59.0014 82.3636C58.4332 82.3636 57.9598 82.5095 57.581 82.8011C57.206 83.089 56.9238 83.4811 56.7344 83.9773C56.5488 84.4697 56.456 85.0227 56.456 85.6364C56.456 86.2576 56.5507 86.822 56.7401 87.3295C56.9332 87.8333 57.2173 88.2348 57.5923 88.5341C57.9711 88.8295 58.4408 88.9773 59.0014 88.9773Z" fill="white"/>
<path fill-rule="evenodd" clip-rule="evenodd" d="M29.9236 33.4959L50 27.496L70.0763 33.4959L50 39.4957L29.9236 33.4959Z" fill="white"/>
<path fill-rule="evenodd" clip-rule="evenodd" d="M29.9236 35.7935V57.8089L48.6292 68.4872L48.7218 41.5552L29.9236 35.7935Z" fill="white"/>
<path fill-rule="evenodd" clip-rule="evenodd" d="M70.0763 35.7935V57.8089L51.3708 68.4872L51.2782 41.5552L70.0763 35.7935Z" fill="white"/>
</g>
<defs>
<clipPath id="clip0_2_250">
<rect width="100" height="100" fill="white"/>
</clipPath>
</defs>
</svg>
