<svg width="100" height="100" viewBox="0 0 100 100" fill="none" xmlns="http://www.w3.org/2000/svg">
<g clip-path="url(#clip0_2_271)">
<path d="M49.6711 2.64662C48.8336 2.6901 48.0131 2.90408 47.2576 3.27602L14.3249 19.4927C13.4725 19.9122 12.7235 20.5226 12.1336 21.2786C11.5437 22.0345 11.128 22.9166 10.9174 23.8593L2.7927 60.286C2.60508 61.1253 2.58409 61.9945 2.73095 62.8422C2.87781 63.6899 3.18955 64.4989 3.64771 65.2213C3.75881 65.3979 3.87828 65.5689 4.00572 65.7335L26.8005 94.9417C27.3905 95.6975 28.1395 96.3077 28.9919 96.727C29.8443 97.1463 30.7782 97.364 31.7242 97.3638L68.2792 97.3551C69.2248 97.3558 70.1585 97.1388 71.0109 96.7203C71.8632 96.3017 72.6124 95.6923 73.2029 94.9374L95.9892 65.7249C96.5796 64.9687 96.9956 64.0863 97.2063 63.1432C97.417 62.2 97.4171 61.2205 97.2065 60.2774L89.0691 23.8507C88.8585 22.9079 88.4428 22.0258 87.8529 21.2699C87.263 20.5139 86.5141 19.9035 85.6617 19.484L52.7247 3.27602C51.7744 2.80815 50.7244 2.59173 49.6711 2.64662Z" fill="#326CE5"/>
<path d="M49.6534 0.00897171C48.7703 0.0566405 47.9055 0.283895 47.1094 0.677431L12.3402 17.7926C11.4404 18.2355 10.6498 18.8799 10.0271 19.6779C9.4044 20.476 8.96558 21.4072 8.74327 22.4023L0.167864 60.8561C-0.0307917 61.7425 -0.0533772 62.6606 0.101447 63.5561C0.256272 64.4515 0.585354 65.3061 1.0692 66.0692C1.18691 66.2548 1.31341 66.4344 1.44825 66.6074L25.5108 97.4434C26.1337 98.2411 26.9243 98.8852 27.8241 99.3278C28.7239 99.7704 29.7097 100 30.7083 100L69.2976 99.9913C70.2958 99.992 71.2814 99.7629 72.1812 99.3211C73.0809 98.8792 73.8718 98.236 74.4951 97.439L98.5492 66.5987C99.1718 65.8009 99.6106 64.8699 99.833 63.875C100.055 62.8801 100.056 61.8468 99.8339 60.8517L91.2458 22.3937C91.0229 21.3993 90.5839 20.4689 89.9612 19.6717C89.3385 18.8744 88.5482 18.2307 87.6489 17.7882L52.8797 0.673091C51.8757 0.178835 50.7663 -0.0495361 49.6534 0.00897171ZM49.6702 2.64808C50.7236 2.59319 51.7736 2.80961 52.7238 3.27748L85.6608 19.4854C86.5132 19.9049 87.2622 20.5154 87.8521 21.2713C88.442 22.0273 88.8577 22.9094 89.0683 23.8521L97.2057 60.2788C97.4163 61.2219 97.4162 62.2015 97.2055 63.1446C96.9948 64.0877 96.5788 64.9701 95.9884 65.7263L73.2021 94.9388C72.6116 95.6938 71.8624 96.3032 71.01 96.7218C70.1577 97.1403 69.224 97.3573 68.2784 97.3566L31.7234 97.3653C30.7774 97.3655 29.8435 97.1478 28.9911 96.7285C28.1387 96.3092 27.3897 95.699 26.7997 94.9432L4.00489 65.735C3.87746 65.5704 3.75798 65.3994 3.64689 65.2228C3.18873 64.5004 2.87699 63.6914 2.73013 62.8437C2.58327 61.996 2.60426 61.1268 2.79188 60.2875L10.9166 23.8608C11.1272 22.9181 11.5429 22.036 12.1328 21.2801C12.7227 20.5241 13.4717 19.9137 14.324 19.4942L47.2568 3.27752C48.0123 2.90558 48.8328 2.6916 49.6702 2.64812L49.6702 2.64808Z" fill="white"/>
<path d="M41.2273 90.2727V78.2727H42.5227V79.6591H42.6818C42.7803 79.5076 42.9167 79.3144 43.0909 79.0795C43.2689 78.8409 43.5227 78.6288 43.8523 78.4432C44.1856 78.2538 44.6364 78.1591 45.2045 78.1591C45.9394 78.1591 46.5871 78.3428 47.1477 78.7102C47.7083 79.0777 48.1458 79.5985 48.4602 80.2727C48.7746 80.947 48.9318 81.7424 48.9318 82.6591C48.9318 83.5833 48.7746 84.3845 48.4602 85.0625C48.1458 85.7367 47.7102 86.2595 47.1534 86.6307C46.5966 86.9981 45.9545 87.1818 45.2273 87.1818C44.6667 87.1818 44.2178 87.089 43.8807 86.9034C43.5436 86.714 43.2841 86.5 43.1023 86.2614C42.9205 86.0189 42.7803 85.8182 42.6818 85.6591H42.5682V90.2727H41.2273ZM42.5455 82.6364C42.5455 83.2955 42.642 83.8769 42.8352 84.3807C43.0284 84.8807 43.3106 85.2727 43.6818 85.5568C44.053 85.8371 44.5076 85.9773 45.0455 85.9773C45.6061 85.9773 46.0739 85.8295 46.4489 85.5341C46.8277 85.2348 47.1117 84.8333 47.3011 84.3295C47.4943 83.822 47.5909 83.2576 47.5909 82.6364C47.5909 82.0227 47.4962 81.4697 47.3068 80.9773C47.1212 80.4811 46.839 80.089 46.4602 79.8011C46.0852 79.5095 45.6136 79.3636 45.0455 79.3636C44.5 79.3636 44.0417 79.5019 43.6705 79.7784C43.2992 80.0511 43.0189 80.4337 42.8295 80.9261C42.6402 81.4148 42.5455 81.9848 42.5455 82.6364ZM57.8011 78.2727L54.5739 87H53.2102L49.983 78.2727H51.4375L53.8466 85.2273H53.9375L56.3466 78.2727H57.8011Z" fill="white"/>
<path fill-rule="evenodd" clip-rule="evenodd" d="M24 36.4264C24 39.9755 35.4916 42.8527 49.6672 42.8527C63.8428 42.8527 75.3344 39.9755 75.3344 36.4264V53.8111C75.3344 57.3603 63.8428 60.2374 49.6672 60.2374C35.4916 60.2374 24 57.3603 24 53.8111V36.4264Z" fill="white"/>
<path fill-rule="evenodd" clip-rule="evenodd" d="M24 36.4264C24 32.8772 35.4916 30 49.6672 30C63.8428 30 75.3344 32.8772 75.3344 36.4264C75.3344 39.9755 63.8428 42.8527 49.6672 42.8527C35.4916 42.8527 24 39.9755 24 36.4264Z" fill="white"/>
<path d="M75.3344 36.4264C75.3344 39.9755 63.8428 42.8527 49.6672 42.8527C35.4916 42.8527 24 39.9755 24 36.4264C24 32.8772 35.4916 30 49.6672 30C63.8428 30 75.3344 32.8772 75.3344 36.4264ZM75.3344 36.4264V53.8111C75.3344 57.3603 63.8428 60.2374 49.6672 60.2374C35.4916 60.2374 24 57.3603 24 53.8111V36.4264" stroke="#326CE5" stroke-width="0.264583" stroke-miterlimit="10" stroke-linejoin="round"/>
</g>
<defs>
<clipPath id="clip0_2_271">
<rect width="100" height="100" fill="white"/>
</clipPath>
</defs>
</svg>
