<svg width="800" height="800" viewBox="0 0 800 800" fill="none" xmlns="http://www.w3.org/2000/svg">
<mask id="mask0_109_258" style="mask-type:luminance" maskUnits="userSpaceOnUse" x="0" y="57" width="797" height="683">
<path d="M796.898 57.0547H0.0546875V739.939H796.898V57.0547Z" fill="white"/>
</mask>
<g mask="url(#mask0_109_258)">
<path d="M765.551 583.531C723.102 605.735 502.803 696.347 455.347 721.218C407.891 746.089 382.476 745.381 345.361 727.64C308.245 709.898 74.6125 614.878 32.2724 594.633C10.939 584.619 0.0546875 576.075 0.0546875 568.075V487.477C0.0546875 487.477 305.252 421.245 354.504 403.395C403.755 385.545 420.789 385.109 462.64 400.456C504.49 415.803 755.374 461.082 796.789 476.102V555.558C796.789 563.83 787.266 571.885 765.551 583.477V583.531Z" fill="#A32422"/>
<path d="M765.551 503.313C723.102 525.408 502.803 616.02 455.347 640.456C407.891 664.891 382.476 664.673 345.36 646.986C308.245 629.299 74.6122 534.279 32.272 514.197C-10.0681 494.116 -10.8845 480.075 30.6394 463.857C72.1632 447.639 305.252 356.374 354.503 338.415C403.755 320.456 420.789 320.075 462.639 335.476C504.49 350.877 723.864 438.007 765.061 453.19C806.258 468.374 808.163 480.837 765.551 502.877V503.313Z" fill="#DC382C"/>
<path d="M765.551 452.266C723.102 474.415 502.803 564.973 455.347 589.409C407.891 613.844 382.694 613.626 345.578 595.83C308.463 578.034 74.6125 483.558 32.2724 463.368C10.939 453.245 0.0546875 444.756 0.0546875 436.701V356.375C0.0546875 356.375 305.252 289.926 354.504 272.075C403.755 254.225 420.789 253.735 462.64 269.3C504.49 284.864 755.374 329.708 796.789 344.837V424.293C796.789 432.565 787.266 440.837 765.551 452.266Z" fill="#A32422"/>
<path d="M765.552 371.667C723.103 393.871 502.803 484.429 455.348 508.865C407.892 533.3 382.477 533.137 345.361 515.395C308.246 497.654 74.6129 403.014 32.2728 382.769C-10.0673 362.525 -10.8292 348.756 30.6401 332.538C72.1095 316.32 305.252 224.837 354.504 207.368C403.756 189.899 420.79 188.81 462.64 203.994C504.49 219.178 723.865 307.069 765.062 321.817C806.259 336.565 808.164 349.518 765.552 371.504V371.667Z" fill="#DC382C"/>
<path d="M765.551 316.048C723.102 338.252 502.803 428.864 455.347 453.245C407.891 477.626 382.694 477.463 345.578 459.776C308.463 442.089 74.6125 347.34 32.2724 327.15C10.939 317.136 0.0546875 308.592 0.0546875 300.538V219.939C0.0546875 219.939 305.252 153.708 354.504 135.912C403.755 118.116 420.789 117.572 462.64 132.919C504.49 148.266 755.266 193.544 796.681 208.674V288.129C796.789 296.51 787.266 304.674 765.551 316.048Z" fill="#A32422"/>
<path d="M765.551 235.558C723.102 257.327 502.803 348.483 455.347 372.701C407.891 396.919 382.476 396.864 345.36 379.232C308.245 361.599 74.6122 266.742 32.272 246.606C-10.0681 226.47 -10.8845 212.483 30.6394 196.266C72.1632 180.048 305.252 88.6193 354.503 70.8778C403.755 53.1363 420.789 52.5921 462.639 67.939C504.49 83.2859 723.864 170.524 765.061 185.653C806.258 200.783 808.163 213.354 765.551 235.395V235.558Z" fill="#DC382C"/>
</g>
<path d="M410.939 121.109L463.51 103.857L449.252 137.925L502.748 157.953L433.796 165.136L418.286 202.361L393.361 160.837L313.633 153.653L373.17 132.211L355.265 99.2314L410.939 121.109Z" fill="white"/>
<path d="M414.259 338.415L285.389 284.918L469.987 256.564L414.259 338.415Z" fill="white"/>
<path d="M235.592 178.633C290.014 178.633 334.259 195.776 334.259 216.728C334.259 237.68 289.905 254.823 235.592 254.823C181.279 254.823 136.871 237.68 136.871 216.728C136.871 195.776 181.116 178.633 235.592 178.633Z" fill="white"/>
<path d="M584.436 168.129L693.66 211.285L584.544 254.442L584.436 168.129Z" fill="#741113"/>
<path d="M584.435 168.129L584.544 254.442L572.68 259.068L463.51 215.911L584.435 168.129Z" fill="#AC2724"/>
</svg>
