<svg width="800" height="800" viewBox="0 0 800 800" fill="none" xmlns="http://www.w3.org/2000/svg">
<path d="M777.693 358.364L624.588 93.2182C611.406 70.4045 578.453 51.1396 552.091 51.1396H245.881C219.518 51.1396 186.565 69.8976 173.384 93.2182L20.2785 358.364C7.09727 381.178 7.09727 419.2 20.2785 442.014L173.384 707.16C186.565 729.974 219.518 749.238 245.881 749.238H552.091C578.453 749.238 611.406 730.481 624.588 707.16L777.693 442.014C791.381 418.693 791.381 381.178 777.693 358.364Z" fill="#6DB33F"/>
<path d="M186.058 655.956C203.138 655.956 216.983 642.11 216.983 625.031C216.983 607.951 203.138 594.105 186.058 594.105C168.979 594.105 155.133 607.951 155.133 625.031C155.133 642.11 168.979 655.956 186.058 655.956Z" fill="white"/>
<path d="M704.688 534.79C614.954 654.435 423.319 613.877 300.632 619.961C300.632 619.961 278.833 620.975 257.033 624.524C257.033 624.524 265.144 620.975 275.791 617.426C361.976 587.515 402.534 581.431 455.259 554.562C553.611 504.372 651.456 394.359 671.735 280.29C634.219 389.796 520.151 484.6 416.729 522.622C345.753 548.985 217.489 574.333 217.489 574.333L212.42 571.799C124.207 529.72 121.672 340.113 280.354 279.276C349.809 252.407 416.729 267.109 491.76 249.365C571.862 230.1 664.638 170.278 702.66 91.6973C744.739 217.426 795.436 413.624 704.688 534.79Z" fill="white"/>
<path d="M702.661 91.6972C744.74 217.426 795.944 413.624 704.689 534.79C648.415 609.821 552.091 621.989 457.794 621.989C413.181 621.989 369.074 619.454 330.037 619.454C319.898 619.454 310.266 619.454 301.14 619.961C301.14 619.961 279.34 620.975 257.541 624.524C257.541 624.524 265.652 620.975 276.299 617.426C362.484 587.515 403.041 581.431 455.766 554.562C554.119 504.371 651.964 394.359 672.243 280.29C634.727 389.796 520.658 484.6 417.236 522.622C346.26 548.985 217.997 574.333 217.997 574.333L212.927 571.799C124.207 529.72 121.672 340.113 280.354 279.276C349.809 252.407 416.729 267.109 491.761 249.365C571.863 230.607 664.638 170.278 702.661 91.6972ZM705.196 51.6465L688.973 85.1066C650.95 164.194 558.174 217.933 488.212 234.663C456.78 242.268 425.855 243.788 396.451 245.309C357.414 247.337 316.856 249.365 275.285 265.081C177.439 302.597 139.923 384.726 137.389 449.112C134.854 510.455 161.216 563.687 204.309 585.487C206.844 587.008 212.42 590.05 216.983 590.05H223.574L224.587 589.036C253.992 582.952 358.935 560.645 421.799 537.832C465.399 521.608 514.575 494.232 559.188 457.73C526.235 492.711 487.705 522.115 448.669 541.887C416.729 558.11 389.353 566.729 351.33 578.389C329.023 584.98 303.168 593.091 271.736 603.738C260.582 607.287 252.471 611.342 251.964 611.342L240.811 634.156L260.582 640.24C281.368 636.691 302.154 635.677 302.661 635.677C311.279 635.17 320.405 635.17 330.544 635.17C349.302 635.17 369.074 635.677 389.86 636.691C412.167 637.198 434.98 638.212 458.301 638.212C552.091 638.212 656.02 627.058 717.363 544.929C788.846 449.619 789.353 300.062 717.87 87.6414L705.196 51.6465Z" fill="#6DB33F"/>
</svg>
