<svg width="100" height="100" viewBox="0 0 100 100" fill="none" xmlns="http://www.w3.org/2000/svg">
<g clip-path="url(#clip0_2_387)">
<path d="M49.6711 2.64662C48.8336 2.6901 48.0131 2.90408 47.2576 3.27602L14.3249 19.4927C13.4725 19.9122 12.7235 20.5226 12.1336 21.2786C11.5437 22.0345 11.128 22.9166 10.9174 23.8593L2.7927 60.286C2.60508 61.1253 2.58409 61.9945 2.73095 62.8422C2.87781 63.6899 3.18955 64.4989 3.64771 65.2213C3.75881 65.3979 3.87828 65.5689 4.00572 65.7335L26.8005 94.9417C27.3905 95.6975 28.1395 96.3077 28.9919 96.727C29.8443 97.1463 30.7782 97.364 31.7242 97.3638L68.2792 97.3551C69.2248 97.3558 70.1585 97.1388 71.0109 96.7203C71.8632 96.3017 72.6124 95.6923 73.2029 94.9374L95.9892 65.7249C96.5796 64.9687 96.9956 64.0863 97.2063 63.1432C97.417 62.2 97.4171 61.2205 97.2065 60.2774L89.0691 23.8507C88.8585 22.9079 88.4428 22.0258 87.8529 21.2699C87.263 20.5139 86.5141 19.9035 85.6617 19.484L52.7247 3.27602C51.7744 2.80815 50.7244 2.59173 49.6711 2.64662Z" fill="#326CE5"/>
<path d="M49.6534 0.00897171C48.7703 0.0566405 47.9055 0.283895 47.1094 0.677431L12.3402 17.7926C11.4404 18.2355 10.6498 18.8799 10.0271 19.6779C9.4044 20.476 8.96558 21.4072 8.74327 22.4023L0.167864 60.8561C-0.0307917 61.7425 -0.0533772 62.6606 0.101447 63.5561C0.256272 64.4515 0.585354 65.3061 1.0692 66.0692C1.18691 66.2548 1.31341 66.4344 1.44825 66.6074L25.5108 97.4434C26.1337 98.2411 26.9243 98.8852 27.8241 99.3278C28.7239 99.7704 29.7097 100 30.7083 100L69.2976 99.9913C70.2958 99.992 71.2814 99.7629 72.1812 99.3211C73.0809 98.8792 73.8718 98.236 74.4951 97.439L98.5492 66.5987C99.1718 65.8009 99.6106 64.8699 99.833 63.875C100.055 62.8801 100.056 61.8468 99.8339 60.8517L91.2458 22.3937C91.0229 21.3993 90.5839 20.4689 89.9612 19.6717C89.3385 18.8744 88.5482 18.2307 87.6489 17.7882L52.8797 0.673091C51.8757 0.178835 50.7663 -0.0495361 49.6534 0.00897171ZM49.6702 2.64808C50.7236 2.59319 51.7736 2.80961 52.7238 3.27748L85.6608 19.4854C86.5132 19.9049 87.2622 20.5154 87.8521 21.2713C88.442 22.0273 88.8577 22.9094 89.0683 23.8521L97.2057 60.2788C97.4163 61.2219 97.4162 62.2015 97.2055 63.1446C96.9948 64.0877 96.5788 64.9701 95.9884 65.7263L73.2021 94.9388C72.6116 95.6938 71.8624 96.3032 71.01 96.7218C70.1577 97.1403 69.224 97.3573 68.2784 97.3566L31.7234 97.3653C30.7774 97.3655 29.8435 97.1478 28.9911 96.7285C28.1387 96.3092 27.3897 95.699 26.7997 94.9432L4.00489 65.735C3.87746 65.5704 3.75798 65.3994 3.64689 65.2228C3.18873 64.5004 2.87699 63.6914 2.73013 62.8437C2.58327 61.996 2.60426 61.1268 2.79188 60.2875L10.9166 23.8608C11.1272 22.9181 11.5429 22.036 12.1328 21.2801C12.7227 20.5241 13.4717 19.9137 14.324 19.4942L47.2568 3.27752C48.0123 2.90558 48.8328 2.6916 49.6702 2.64812L49.6702 2.64808Z" fill="white"/>
<path d="M44.4091 82.2273L43.2045 82.5682C43.1288 82.3674 43.017 82.1723 42.8693 81.983C42.7254 81.7898 42.5284 81.6307 42.2784 81.5057C42.0284 81.3807 41.7083 81.3182 41.3182 81.3182C40.7841 81.3182 40.339 81.4413 39.983 81.6875C39.6307 81.9299 39.4545 82.2386 39.4545 82.6136C39.4545 82.947 39.5758 83.2102 39.8182 83.4034C40.0606 83.5966 40.4394 83.7576 40.9545 83.8864L42.25 84.2045C43.0303 84.3939 43.6117 84.6837 43.9943 85.0739C44.3769 85.4602 44.5682 85.9583 44.5682 86.5682C44.5682 87.0682 44.4242 87.5152 44.1364 87.9091C43.8523 88.303 43.4545 88.6136 42.9432 88.8409C42.4318 89.0682 41.8371 89.1818 41.1591 89.1818C40.2689 89.1818 39.5322 88.9886 38.9489 88.6023C38.3655 88.2159 37.9962 87.6515 37.8409 86.9091L39.1136 86.5909C39.2348 87.0606 39.464 87.4129 39.8011 87.6477C40.142 87.8826 40.5871 88 41.1364 88C41.7614 88 42.2576 87.8674 42.625 87.6023C42.9962 87.3333 43.1818 87.0114 43.1818 86.6364C43.1818 86.3333 43.0758 86.0795 42.8636 85.875C42.6515 85.6667 42.3258 85.5114 41.8864 85.4091L40.4318 85.0682C39.6326 84.8788 39.0455 84.5852 38.6705 84.1875C38.2992 83.786 38.1136 83.2841 38.1136 82.6818C38.1136 82.1894 38.2519 81.7538 38.5284 81.375C38.8087 80.9962 39.1894 80.6989 39.6705 80.483C40.1553 80.267 40.7045 80.1591 41.3182 80.1591C42.1818 80.1591 42.8598 80.3485 43.3523 80.7273C43.8485 81.1061 44.2008 81.6061 44.4091 82.2273ZM53.723 80.2727L50.4957 89H49.1321L45.9048 80.2727H47.3594L49.7685 87.2273H49.8594L52.2685 80.2727H53.723ZM58.7259 89.1818C57.9077 89.1818 57.2031 88.9886 56.6122 88.6023C56.0213 88.2159 55.5668 87.6837 55.2486 87.0057C54.9304 86.3277 54.7713 85.553 54.7713 84.6818C54.7713 83.7955 54.9342 83.0133 55.2599 82.3352C55.5895 81.6534 56.0478 81.1212 56.6349 80.7386C57.2259 80.3523 57.9152 80.1591 58.7031 80.1591C59.3168 80.1591 59.8698 80.2727 60.3622 80.5C60.8546 80.7273 61.258 81.0455 61.5724 81.4545C61.8868 81.8636 62.0819 82.3409 62.1577 82.8864H60.8168C60.7145 82.4886 60.4872 82.1364 60.1349 81.8295C59.7865 81.5189 59.3168 81.3636 58.7259 81.3636C58.2031 81.3636 57.7448 81.5 57.3509 81.7727C56.9607 82.0417 56.6558 82.4223 56.4361 82.9148C56.2202 83.4034 56.1122 83.9773 56.1122 84.6364C56.1122 85.3106 56.2183 85.8977 56.4304 86.3977C56.6463 86.8977 56.9493 87.286 57.3395 87.5625C57.7334 87.839 58.1955 87.9773 58.7259 87.9773C59.0743 87.9773 59.3906 87.9167 59.6747 87.7955C59.9588 87.6742 60.1993 87.5 60.3963 87.2727C60.5933 87.0455 60.7334 86.7727 60.8168 86.4545H62.1577C62.0819 86.9697 61.8944 87.4337 61.5952 87.8466C61.2997 88.2557 60.9077 88.5814 60.419 88.8239C59.9342 89.0625 59.3698 89.1818 58.7259 89.1818Z" fill="white"/>
<path fill-rule="evenodd" clip-rule="evenodd" d="M19.9317 57.6367H36.0575V69.3032H19.9317V57.6367Z" fill="white"/>
<path fill-rule="evenodd" clip-rule="evenodd" d="M41.9371 57.6367H58.0629V69.3032H41.9371V57.6367Z" fill="white"/>
<path fill-rule="evenodd" clip-rule="evenodd" d="M63.9426 57.6367H80.0683V69.3032H63.9426V57.6367Z" fill="white"/>
<path fill-rule="evenodd" clip-rule="evenodd" d="M37.2242 23.0516H62.7758V34.718H37.2242V23.0516Z" fill="white"/>
<path d="M50 34.718V46.1774H28.0061V57.6223" stroke="white" stroke-width="0.529167" stroke-miterlimit="10" stroke-linejoin="round"/>
<path d="M50 34.718V46.1774H71.9939V57.6223" stroke="white" stroke-width="0.529" stroke-miterlimit="10" stroke-linejoin="round"/>
<path d="M49.9537 34.7252V46.1847H50.0463V57.6295" stroke="white" stroke-width="0.529167" stroke-miterlimit="10" stroke-linejoin="round"/>
</g>
<defs>
<clipPath id="clip0_2_387">
<rect width="100" height="100" fill="white"/>
</clipPath>
</defs>
</svg>
