<svg width="100" height="100" viewBox="0 0 100 100" fill="none" xmlns="http://www.w3.org/2000/svg">
<g clip-path="url(#clip0_2_38)">
<path d="M49.671 2.64662C48.8336 2.6901 48.0131 2.90408 47.2576 3.27602L14.3248 19.4927C13.4725 19.9122 12.7235 20.5226 12.1336 21.2786C11.5437 22.0345 11.128 22.9166 10.9174 23.8593L2.79268 60.286C2.60507 61.1253 2.58407 61.9945 2.73093 62.8422C2.8778 63.6899 3.18954 64.4989 3.6477 65.2213C3.75879 65.3979 3.87827 65.5689 4.0057 65.7335L26.8005 94.9417C27.3905 95.6975 28.1395 96.3077 28.9919 96.727C29.8443 97.1463 30.7782 97.364 31.7242 97.3638L68.2792 97.3551C69.2248 97.3558 70.1585 97.1388 71.0108 96.7203C71.8632 96.3017 72.6124 95.6923 73.2029 94.9374L95.9892 65.7249C96.5796 64.9687 96.9956 64.0863 97.2063 63.1432C97.417 62.2 97.4171 61.2205 97.2065 60.2774L89.0691 23.8507C88.8585 22.9079 88.4428 22.0258 87.8529 21.2699C87.263 20.5139 86.514 19.9035 85.6617 19.484L52.7247 3.27602C51.7744 2.80815 50.7244 2.59173 49.671 2.64662Z" fill="#326CE5"/>
<path d="M49.6534 0.00897171C48.7703 0.0566405 47.9055 0.283895 47.1094 0.677431L12.3402 17.7926C11.4404 18.2355 10.6498 18.8799 10.0271 19.6779C9.4044 20.476 8.96558 21.4072 8.74327 22.4023L0.167864 60.8561C-0.0307917 61.7425 -0.0533772 62.6606 0.101447 63.5561C0.256272 64.4515 0.585354 65.3061 1.0692 66.0692C1.18691 66.2548 1.31341 66.4344 1.44825 66.6074L25.5108 97.4434C26.1337 98.2411 26.9243 98.8852 27.8241 99.3278C28.7239 99.7704 29.7097 100 30.7083 100L69.2976 99.9913C70.2958 99.992 71.2814 99.7629 72.1812 99.3211C73.0809 98.8792 73.8718 98.236 74.4951 97.439L98.5492 66.5987C99.1718 65.8009 99.6106 64.8699 99.833 63.875C100.055 62.8801 100.056 61.8468 99.8339 60.8517L91.2458 22.3937C91.0229 21.3993 90.5839 20.4689 89.9612 19.6717C89.3385 18.8744 88.5482 18.2307 87.6489 17.7882L52.8797 0.673091C51.8757 0.178835 50.7663 -0.0495361 49.6534 0.00897171ZM49.6702 2.64808C50.7236 2.59319 51.7736 2.80961 52.7238 3.27748L85.6608 19.4854C86.5132 19.9049 87.2622 20.5154 87.8521 21.2713C88.442 22.0273 88.8577 22.9094 89.0683 23.8521L97.2057 60.2788C97.4163 61.2219 97.4162 62.2015 97.2055 63.1446C96.9948 64.0877 96.5788 64.9701 95.9884 65.7263L73.2021 94.9388C72.6116 95.6938 71.8624 96.3032 71.01 96.7218C70.1577 97.1403 69.224 97.3573 68.2784 97.3566L31.7234 97.3653C30.7774 97.3655 29.8435 97.1478 28.9911 96.7285C28.1387 96.3092 27.3897 95.699 26.7997 94.9432L4.00489 65.735C3.87746 65.5704 3.75798 65.3994 3.64689 65.2228C3.18873 64.5004 2.87699 63.6914 2.73013 62.8437C2.58327 61.996 2.60426 61.1268 2.79188 60.2875L10.9166 23.8608C11.1272 22.9181 11.5429 22.036 12.1328 21.2801C12.7227 20.5241 13.4717 19.9137 14.324 19.4942L47.2568 3.27752C48.0123 2.90558 48.8328 2.6916 49.6702 2.64812L49.6702 2.64808Z" fill="white"/>
<path d="M35.5227 90.1818C34.7955 90.1818 34.1534 89.9981 33.5966 89.6307C33.0398 89.2595 32.6042 88.7367 32.2898 88.0625C31.9754 87.3845 31.8182 86.5833 31.8182 85.6591C31.8182 84.7424 31.9754 83.947 32.2898 83.2727C32.6042 82.5985 33.0417 82.0777 33.6023 81.7102C34.1629 81.3428 34.8106 81.1591 35.5455 81.1591C36.1136 81.1591 36.5625 81.2538 36.892 81.4432C37.2254 81.6288 37.4792 81.8409 37.6534 82.0795C37.8314 82.3144 37.9697 82.5076 38.0682 82.6591H38.1818V78.3636H39.5227V90H38.2273V88.6591H38.0682C37.9697 88.8182 37.8295 89.0189 37.6477 89.2614C37.4659 89.5 37.2064 89.714 36.8693 89.9034C36.5322 90.089 36.0833 90.1818 35.5227 90.1818ZM35.7045 88.9773C36.2424 88.9773 36.697 88.8371 37.0682 88.5568C37.4394 88.2727 37.7216 87.8807 37.9148 87.3807C38.108 86.8769 38.2045 86.2955 38.2045 85.6364C38.2045 84.9848 38.1098 84.4148 37.9205 83.9261C37.7311 83.4337 37.4508 83.0511 37.0795 82.7784C36.7083 82.5019 36.25 82.3636 35.7045 82.3636C35.1364 82.3636 34.6629 82.5095 34.2841 82.8011C33.9091 83.089 33.6269 83.4811 33.4375 83.9773C33.2519 84.4697 33.1591 85.0227 33.1591 85.6364C33.1591 86.2576 33.2538 86.822 33.4432 87.3295C33.6364 87.8333 33.9205 88.2348 34.2955 88.5341C34.6742 88.8295 35.1439 88.9773 35.7045 88.9773ZM45.7102 90.1818C44.9223 90.1818 44.2311 89.9943 43.6364 89.6193C43.0455 89.2443 42.5833 88.7197 42.25 88.0455C41.9205 87.3712 41.7557 86.5833 41.7557 85.6818C41.7557 84.7727 41.9205 83.9792 42.25 83.3011C42.5833 82.6231 43.0455 82.0966 43.6364 81.7216C44.2311 81.3466 44.9223 81.1591 45.7102 81.1591C46.4981 81.1591 47.1875 81.3466 47.7784 81.7216C48.3731 82.0966 48.8352 82.6231 49.1648 83.3011C49.4981 83.9792 49.6648 84.7727 49.6648 85.6818C49.6648 86.5833 49.4981 87.3712 49.1648 88.0455C48.8352 88.7197 48.3731 89.2443 47.7784 89.6193C47.1875 89.9943 46.4981 90.1818 45.7102 90.1818ZM45.7102 88.9773C46.3087 88.9773 46.8011 88.8239 47.1875 88.517C47.5739 88.2102 47.8598 87.8068 48.0455 87.3068C48.2311 86.8068 48.3239 86.2652 48.3239 85.6818C48.3239 85.0985 48.2311 84.5549 48.0455 84.0511C47.8598 83.5473 47.5739 83.1402 47.1875 82.8295C46.8011 82.5189 46.3087 82.3636 45.7102 82.3636C45.1117 82.3636 44.6193 82.5189 44.233 82.8295C43.8466 83.1402 43.5606 83.5473 43.375 84.0511C43.1894 84.5549 43.0966 85.0985 43.0966 85.6818C43.0966 86.2652 43.1894 86.8068 43.375 87.3068C43.5606 87.8068 43.8466 88.2102 44.233 88.517C44.6193 88.8239 45.1117 88.9773 45.7102 88.9773ZM55.2571 90.1818C54.4389 90.1818 53.7344 89.9886 53.1435 89.6023C52.5526 89.2159 52.098 88.6837 51.7798 88.0057C51.4616 87.3277 51.3026 86.553 51.3026 85.6818C51.3026 84.7955 51.4654 84.0133 51.7912 83.3352C52.1207 82.6534 52.5791 82.1212 53.1662 81.7386C53.7571 81.3523 54.4465 81.1591 55.2344 81.1591C55.848 81.1591 56.401 81.2727 56.8935 81.5C57.3859 81.7273 57.7893 82.0455 58.1037 82.4545C58.4181 82.8636 58.6132 83.3409 58.6889 83.8864H57.348C57.2457 83.4886 57.0185 83.1364 56.6662 82.8295C56.3177 82.5189 55.848 82.3636 55.2571 82.3636C54.7344 82.3636 54.276 82.5 53.8821 82.7727C53.492 83.0417 53.187 83.4223 52.9673 83.9148C52.7514 84.4034 52.6435 84.9773 52.6435 85.6364C52.6435 86.3106 52.7495 86.8977 52.9616 87.3977C53.1776 87.8977 53.4806 88.286 53.8707 88.5625C54.2647 88.839 54.7268 88.9773 55.2571 88.9773C55.6056 88.9773 55.9219 88.9167 56.206 88.7955C56.4901 88.6742 56.7306 88.5 56.9276 88.2727C57.1245 88.0455 57.2647 87.7727 57.348 87.4545H58.6889C58.6132 87.9697 58.4257 88.4337 58.1264 88.8466C57.831 89.2557 57.4389 89.5814 56.9503 89.8239C56.4654 90.0625 55.901 90.1818 55.2571 90.1818ZM61.8991 86.8182L61.8764 85.1591H62.1491L65.9673 81.2727H67.6264L63.5582 85.3864H63.4446L61.8991 86.8182ZM60.6491 90V78.3636H61.9901V90H60.6491ZM66.1946 90L62.7855 85.6818L63.7401 84.75L67.8991 90H66.1946Z" fill="white"/>
<path d="M80.7992 45.7872C79.2589 44.7504 75.2123 44.3083 72.2703 45.1003C72.1121 42.1695 70.6006 39.6995 67.8355 37.5458L66.8127 36.859L66.1305 37.8893C64.7903 39.9238 64.2253 42.6358 64.4245 45.1013C64.5827 46.6202 65.1104 48.3271 66.1305 49.5658C62.3007 51.7874 58.7714 51.283 43.1394 51.283H19.0054C18.9347 54.8131 19.5024 61.6026 23.8199 67.13C24.2965 67.7405 24.8195 68.3315 25.3872 68.9002C28.8978 72.4154 34.2019 74.9935 42.1333 75C54.2324 75.0112 64.5995 68.4702 70.9059 52.6567C72.9814 52.6911 78.4585 53.028 81.1389 47.8487C81.2041 47.7612 81.8212 46.475 81.8212 46.475L80.7992 45.7881V45.7872ZM34.7557 42.1444H27.969V48.9311H34.7557V42.1444ZM43.5238 42.1444H36.7371V48.9311H43.5238V42.1444ZM52.2919 42.1444H45.5052V48.9311H52.2919V42.1444ZM61.06 42.1444H54.2734V48.9311H61.06V42.1444ZM25.9894 42.1444H19.2009V48.9311H25.9875V42.1444H25.9894ZM34.7575 33.5717H27.9709V40.3584H34.7575V33.5717ZM43.5256 33.5717H36.739V40.3584H43.5256V33.5717ZM52.2938 33.5717H45.5071V40.3584H52.2938V33.5717ZM52.291 25H45.5043V31.7867H52.291V25Z" fill="white"/>
</g>
<defs>
<clipPath id="clip0_2_38">
<rect width="100" height="100" fill="white"/>
</clipPath>
</defs>
</svg>
