<svg width="800" height="800" viewBox="0 0 800 800" fill="none" xmlns="http://www.w3.org/2000/svg">
<path d="M742.94 339.098C741.58 326.842 740.216 311.861 734.769 295.519C730.682 279.177 723.875 261.473 714.341 242.408C704.808 223.342 692.554 204.276 677.573 185.21C672.126 178.401 665.315 170.23 657.145 163.421C668.039 119.842 643.528 83.0723 643.528 83.0723C602.672 80.3485 575.434 95.3287 565.9 103.5C564.54 103.5 563.176 102.138 560.453 100.776C553.646 98.0525 546.835 95.3287 538.665 92.6052C530.494 89.8814 523.684 88.5196 515.514 85.7958C507.343 84.4341 499.169 83.0723 492.362 81.7103C490.999 81.7103 489.639 81.7103 488.275 81.7103C470.571 24.5131 418.821 0 418.821 0C361.625 36.7697 350.73 87.1579 350.73 87.1579C350.73 87.1579 350.73 88.5197 350.73 89.8814C348.006 91.2431 343.921 91.2431 341.197 92.6052C337.112 93.967 333.026 95.3287 327.579 96.6908C323.493 98.0525 319.408 99.4143 313.96 102.138C305.789 106.224 296.257 110.309 288.085 114.394C279.914 118.48 271.744 123.927 263.572 129.375C262.211 129.375 262.211 128.013 262.211 128.013C181.862 98.0525 111.046 134.822 111.046 134.822C104.237 219.256 142.369 273.73 150.54 283.263C149.178 288.71 146.454 294.158 145.092 299.605C139.645 318.671 134.197 339.098 131.474 359.527C131.474 362.25 130.112 364.974 130.112 367.697C56.5726 404.466 34.7832 479.367 34.7832 479.367C96.066 550.184 168.244 554.268 168.244 554.268C177.777 570.612 187.309 585.59 199.566 600.57C205.013 606.017 210.461 612.828 214.546 618.275C192.757 682.282 217.27 735.395 217.27 735.395C285.362 738.118 330.303 705.433 339.835 697.263C346.644 699.986 353.454 701.346 360.263 704.073C380.69 709.52 402.481 712.243 424.268 713.603C429.715 713.603 435.166 713.603 440.613 713.603H443.336H444.696H447.42H450.143C482.828 759.906 538.665 766.717 538.665 766.717C579.521 724.497 580.881 682.282 580.881 672.748V671.388V670.024C589.051 664.577 597.221 657.77 605.395 650.96C621.736 635.979 635.354 619.638 647.611 601.934C648.974 600.57 650.334 599.21 650.334 596.487C696.637 599.21 727.959 567.889 727.959 567.889C719.788 520.223 692.55 497.071 687.103 492.988H685.743C685.743 490.261 685.743 487.537 685.743 484.814C685.743 479.367 685.743 473.92 685.743 469.837V463.026V461.663V460.303V458.939V456.216V452.132C685.743 450.769 685.743 449.409 685.743 448.045C685.743 446.685 685.743 445.322 685.743 443.958V439.875V435.788C684.38 430.341 684.38 424.894 683.02 420.807C677.573 400.383 670.762 381.315 659.868 363.61C648.975 345.907 636.717 330.927 621.736 317.309C606.755 303.69 590.414 294.158 572.71 285.986C555.006 277.815 537.301 273.73 518.237 271.006C508.703 269.644 500.533 269.644 490.999 269.644H488.275H486.915H485.552H484.192H481.468C480.105 269.644 478.741 269.644 477.381 269.644C473.294 269.644 467.848 271.006 463.764 271.006C446.06 273.73 428.355 280.539 413.374 290.072C398.394 299.605 384.776 310.499 373.881 322.756C362.987 335.013 354.816 349.993 349.368 364.974C343.921 379.955 341.197 394.932 339.835 409.913C339.835 414 339.835 416.723 339.835 420.807C339.835 422.17 339.835 422.17 339.835 423.534V426.257C339.835 427.617 339.835 430.341 339.835 431.704C341.197 438.511 342.559 446.685 343.921 453.492C348.006 467.11 354.816 479.367 361.625 490.261C369.796 501.158 379.329 509.329 388.863 516.136C398.394 522.946 409.291 528.393 420.185 531.117C431.079 533.84 440.613 535.203 451.507 535.203C452.867 535.203 454.23 535.203 455.59 535.203H456.954H458.317C459.677 535.203 461.041 535.203 461.041 535.203C461.041 535.203 461.041 535.203 462.401 535.203H463.764H465.124C466.488 535.203 467.848 535.203 469.211 535.203C470.571 535.203 471.934 535.203 473.294 533.84C476.018 533.84 477.381 532.48 480.105 532.48C484.192 531.117 488.275 529.757 492.362 527.033C496.446 525.67 499.169 522.946 503.256 520.223C504.616 520.223 504.62 518.863 505.98 517.499C510.067 514.776 510.067 509.329 507.343 506.605C504.62 503.882 500.533 502.518 497.809 505.242C496.446 505.242 496.446 506.605 495.086 506.605C492.362 507.965 489.639 509.329 485.552 510.689C482.828 512.052 478.741 512.052 476.018 513.412C474.658 513.412 471.935 513.412 470.571 513.412C469.211 513.412 469.211 513.412 467.848 513.412C466.488 513.412 466.488 513.412 465.124 513.412C463.764 513.412 463.764 513.412 462.401 513.412C461.041 513.412 459.677 513.412 459.677 513.412H458.317H456.954C455.59 513.412 455.594 513.412 454.23 513.412C446.06 512.052 439.249 510.689 431.079 506.605C422.908 503.882 416.098 498.435 409.288 492.988C402.481 487.537 397.034 479.367 392.947 472.56C388.863 465.75 384.776 456.216 383.413 446.685C382.052 442.598 382.052 437.151 382.052 433.064C382.052 431.704 382.052 430.341 382.052 428.981V427.617V426.257C382.052 423.534 382.052 420.807 383.413 418.083C387.5 397.656 397.034 378.591 413.374 362.25C417.461 358.163 421.545 355.44 425.632 351.353C429.715 348.63 435.166 345.907 439.249 343.184C444.696 340.46 450.143 339.098 454.23 337.736C459.677 336.375 465.124 335.013 470.571 335.013C473.295 335.013 476.018 335.013 478.741 335.013H480.105H482.828H484.192H486.915C492.362 335.013 499.169 336.375 504.616 337.736C516.874 340.46 527.768 344.545 538.665 351.353C560.453 363.61 578.157 382.678 590.414 404.466C595.861 415.36 599.948 427.617 602.672 439.875C602.672 442.598 604.032 446.685 604.032 449.409V452.132V454.856C604.032 456.216 604.032 456.216 604.032 457.579C604.032 458.939 604.032 458.939 604.032 460.303V463.026V465.75C604.032 467.11 604.032 469.833 604.032 471.197C604.032 475.283 604.032 478.007 602.672 482.09C602.672 484.814 601.308 488.901 601.308 491.624C601.308 494.348 599.945 498.435 598.585 501.158C597.221 507.965 594.498 514.776 591.775 520.223C586.328 532.48 579.521 544.737 571.347 556.991C555.006 578.783 533.218 597.847 507.343 608.741C495.086 614.191 481.468 618.275 467.848 620.998C461.041 622.362 454.23 622.362 447.42 623.722H446.06H444.696H441.973H439.249H437.889C433.802 623.722 431.079 623.722 426.992 623.722C412.015 622.362 397.034 619.638 383.413 615.551C369.796 611.468 354.816 606.017 342.559 599.21C316.684 585.59 293.533 566.525 274.467 543.374C264.934 532.48 256.763 520.223 251.316 506.605C244.506 492.988 239.059 479.367 234.974 465.75C230.888 452.132 228.165 437.151 228.165 423.534V420.807V419.447V416.723V408.553V407.19V404.466V403.106C228.165 401.743 228.165 399.019 228.165 397.656C228.165 390.849 229.526 382.678 229.526 375.868C230.888 369.057 232.25 360.887 233.612 354.08C234.974 347.269 236.336 339.098 239.059 332.289C243.145 318.671 248.592 305.052 254.04 291.434C266.296 265.559 281.276 242.408 300.342 224.704C304.427 220.618 309.875 215.171 315.322 211.085C320.77 207 326.217 202.914 331.665 200.191C337.112 196.105 342.559 193.381 348.006 190.658C350.73 189.296 353.454 187.934 356.178 186.572C357.539 186.572 358.901 185.21 360.263 185.21C361.625 185.21 362.987 183.848 364.349 183.848C369.796 181.125 376.605 179.763 382.052 177.039C383.413 177.039 384.776 175.677 386.14 175.677C387.5 175.677 388.863 174.315 390.223 174.315C392.947 172.954 397.034 172.954 399.757 171.592C401.117 171.592 402.481 170.23 405.204 170.23C406.564 170.23 407.928 170.23 410.651 168.868C412.015 168.868 413.375 168.868 416.098 167.506H418.821H421.545C422.908 167.506 424.268 167.506 426.992 166.144C428.355 166.144 431.079 166.144 432.442 164.783C433.802 164.783 436.526 164.783 437.889 164.783C439.249 164.783 440.613 164.783 441.973 164.783H444.696H446.06H447.42C448.783 164.783 451.507 164.783 452.867 164.783H455.59H456.954C458.317 164.783 459.677 164.783 461.041 164.783C467.848 164.783 473.295 164.783 480.105 164.783C492.362 164.783 504.616 166.144 516.874 168.868C540.025 172.954 561.816 181.125 582.244 190.658C602.672 200.191 620.373 212.447 635.354 226.065C636.717 227.427 636.717 227.427 638.077 228.789C639.441 230.151 639.441 230.151 640.801 231.513C642.164 232.875 644.888 234.237 646.248 236.96C647.611 239.684 650.334 239.684 651.698 242.408C653.058 245.131 655.781 246.493 657.145 247.855C663.952 254.664 669.399 261.473 674.849 269.644C685.743 283.263 695.277 298.243 702.084 311.861C702.084 313.223 703.448 313.223 703.448 314.585C703.448 315.947 704.808 315.947 704.808 317.309C706.171 318.671 706.171 320.032 707.531 322.756C708.894 324.118 708.894 325.48 710.254 328.203C711.618 329.565 711.618 330.927 712.978 333.651C715.705 340.46 718.428 345.907 719.788 351.353C722.512 360.887 725.235 369.057 726.599 375.868C727.959 378.591 730.682 381.315 733.406 379.955C736.129 379.955 738.856 377.231 738.856 374.504C744.303 358.163 744.303 348.63 742.94 339.098Z" fill="url(#paint0_linear_993_29)"/>
<defs>
<linearGradient id="paint0_linear_993_29" x1="391.455" y1="973.913" x2="391.455" y2="86.9566" gradientUnits="userSpaceOnUse">
<stop stop-color="#FFF100"/>
<stop offset="1" stop-color="#F05A28"/>
</linearGradient>
</defs>
</svg>
