<svg width="800" height="800" viewBox="0 0 800 800" fill="none" xmlns="http://www.w3.org/2000/svg">
<path d="M397.663 4.68066C178.049 4.68066 0 182.709 0 402.33C0 621.944 178.049 799.986 397.663 799.986C617.277 799.986 795.319 621.944 795.319 402.33C795.319 182.709 617.27 4.68066 397.663 4.68066ZM397.663 748.926C335.179 748.926 284.519 707.186 284.519 655.712H510.807C510.807 707.179 460.147 748.926 397.663 748.926ZM584.54 624.842H210.765V557.067H584.547L584.54 624.842ZM583.2 522.182H211.832C210.596 520.758 209.333 519.354 208.14 517.909C169.881 471.453 160.87 447.2 152.119 422.484C151.972 421.67 198.512 431.993 231.516 439.418C231.516 439.418 248.498 443.347 273.326 447.874C249.488 419.93 235.333 384.407 235.333 348.098C235.333 268.386 296.47 198.73 274.414 142.428C295.881 144.175 318.842 187.733 320.393 255.839C343.214 224.302 352.765 166.709 352.765 131.396C352.765 94.8351 376.856 52.3649 400.954 50.9122C379.474 86.3158 406.519 116.667 430.561 191.958C439.579 220.239 438.428 267.832 445.389 298.014C447.698 235.326 458.477 143.86 498.246 112.281C480.702 152.049 500.842 201.811 514.618 225.733C536.842 264.33 550.316 293.572 550.316 348.877C550.316 385.958 536.625 420.87 513.53 448.161C539.789 443.235 557.923 438.793 557.923 438.793L643.2 422.154C643.207 422.147 630.814 473.109 583.2 522.182Z" fill="#E6522C"/>
</svg>
