<svg width="800" height="800" viewBox="0 0 800 800" fill="none" xmlns="http://www.w3.org/2000/svg">
<path d="M767.024 319.805H517.854C513.747 319.831 509.675 319.041 505.876 317.481C502.077 315.921 498.625 313.623 495.721 310.719C492.816 307.814 490.518 304.362 488.958 300.563C487.398 296.764 486.608 292.692 486.634 288.585V39.4145C486.634 35.3238 485.826 31.2735 484.254 27.4967C482.683 23.7199 480.38 20.2911 477.479 17.4076C474.577 14.5242 471.134 12.243 467.347 10.6954C463.561 9.14783 459.505 8.36435 455.415 8.39008H362.146C358.056 8.36435 354.001 9.14783 350.214 10.6954C346.427 12.243 342.984 14.5242 340.083 17.4076C337.181 20.2911 334.878 23.7199 333.307 27.4967C331.736 31.2735 330.927 35.3238 330.927 39.4145V288.585C330.953 292.692 330.163 296.764 328.603 300.563C327.044 304.362 324.745 307.814 321.841 310.719C318.937 313.623 315.485 315.921 311.685 317.481C307.886 319.041 303.815 319.831 299.707 319.805H206.439C202.332 319.831 198.261 319.041 194.461 317.481C190.662 315.921 187.21 313.623 184.306 310.719C181.402 307.814 179.103 304.362 177.543 300.563C175.984 296.764 175.194 292.692 175.22 288.585V39.4145C175.246 35.3074 174.456 31.2361 172.896 27.4367C171.336 23.6373 169.038 20.1853 166.133 17.2812C163.229 14.377 159.777 12.0784 155.978 10.5186C152.178 8.95887 148.107 8.16904 144 8.19495H50.5367C46.4461 8.19487 42.3958 9.00376 38.619 10.5751C34.8421 12.1464 31.4133 14.4491 28.5299 17.3507C25.6464 20.2522 23.3653 23.6954 21.8177 27.482C20.2701 31.2686 19.4866 35.3239 19.5123 39.4145V755.902C19.4864 760.009 20.2762 764.081 21.836 767.88C23.3957 771.68 25.6944 775.131 28.5986 778.036C31.5027 780.94 34.9546 783.238 38.7541 784.798C42.5535 786.358 46.6248 787.148 50.7318 787.122H767.024C771.132 787.148 775.203 786.358 779.002 784.798C782.802 783.238 786.254 780.94 789.158 778.036C792.062 775.131 794.361 771.68 795.92 767.88C797.48 764.081 798.27 760.009 798.244 755.902V351.61C798.349 347.454 797.617 343.319 796.093 339.452C794.568 335.584 792.282 332.062 789.37 329.096C786.458 326.129 782.979 323.778 779.14 322.182C775.302 320.586 771.182 319.777 767.024 319.805ZM641.756 584.39C641.782 590.531 640.595 596.616 638.263 602.296C635.93 607.977 632.5 613.141 628.167 617.492C623.834 621.843 618.684 625.295 613.013 627.651C607.343 630.007 601.263 631.219 595.122 631.219H532.683C526.543 631.219 520.462 630.007 514.792 627.651C509.121 625.295 503.972 621.843 499.639 617.492C495.306 613.141 491.875 607.977 489.543 602.296C487.211 596.616 486.023 590.531 486.049 584.39V522.146C486.023 516.006 487.211 509.921 489.543 504.24C491.875 498.56 495.306 493.396 499.639 489.045C503.972 484.694 509.121 481.241 514.792 478.885C520.462 476.53 526.543 475.317 532.683 475.317H595.122C601.263 475.317 607.343 476.53 613.013 478.885C618.684 481.241 623.834 484.694 628.167 489.045C632.5 493.396 635.93 498.56 638.263 504.24C640.595 509.921 641.782 516.006 641.756 522.146V584.39Z" fill="#FF6600"/>
</svg>
