<svg width="800" height="800" viewBox="0 0 800 800" fill="none" xmlns="http://www.w3.org/2000/svg">
<path opacity="0.991" fill-rule="evenodd" clip-rule="evenodd" d="M795 479.858C795 488.207 795 496.556 795 504.905C788.053 566.897 757.225 612.657 702.516 642.187C683.415 651.133 663.506 656.752 642.786 659.046C488.003 659.046 333.221 659.046 178.438 659.046C103.506 649.926 50.3605 611.07 18.9989 542.477C-3.17964 483.969 0.994995 427.452 31.5228 372.923C72.8602 309.139 131.786 278.793 208.303 281.883C224.758 283.119 240.815 286.33 256.472 291.517C265.982 295.214 275.295 299.067 284.41 303.078C255.662 281.495 223.229 269.293 187.108 266.469C240.203 182.898 316.631 139.385 416.392 135.932C490.786 137.482 554.369 164.135 607.141 215.892C618.573 200.747 628.047 184.37 635.561 166.76C654.989 221.028 669.761 276.583 679.876 333.424C747.541 359.27 785.916 408.08 795 479.858ZM610.031 337.278C610.91 336.085 611.071 334.8 610.513 333.424C609.369 334.448 608.887 335.733 609.068 337.278C590.338 382.844 561.757 421.219 523.327 452.401C485.548 483.982 442.838 506.782 395.198 520.801C356.532 531.712 317.515 541.185 278.148 549.221C262.996 543.064 251.435 532.789 243.466 518.393C222.566 471.44 226.74 426.803 255.99 384.483C286.435 346.697 326.093 325.984 374.967 322.345C394.859 320.791 414.768 319.507 434.697 318.492C506.551 312.35 566.12 282.325 613.403 228.416C620.79 218.788 627.212 208.512 632.671 197.588C655.802 259.938 668.808 324.324 671.688 390.745C670.464 514.959 607.845 579.184 483.829 583.421C443.035 584.054 402.251 583.572 361.48 581.976C345.358 582.188 329.302 582.99 313.311 584.384C340.852 574.775 368.629 565.945 396.643 557.891C473.439 533.748 533.489 487.827 576.795 420.128C592.946 394.566 604.025 366.949 610.031 337.278ZM252.618 563.672C267.255 564.342 275.604 571.888 277.666 586.311C275.065 603.049 265.431 610.113 248.765 607.505C232.486 599.128 229.115 587.085 238.649 571.379C242.617 567.391 247.273 564.822 252.618 563.672Z" fill="white"/>
</svg>
